<svg width="71" height="71" viewBox="0 0 71 71" fill="none" xmlns="http://www.w3.org/2000/svg">
<path d="M10.4937 0.943741C9.94998 1.02499 8.54373 1.35624 8.01248 1.53749C6.23748 2.12499 4.28748 3.56249 3.09998 5.14999C1.99373 6.62499 1.56248 7.54999 1.15623 9.31249C1.03748 9.81249 0.912484 10.4937 0.881234 10.825C0.787484 11.6562 0.787484 60.175 0.874984 60.9625C1.02498 62.2687 1.49373 63.9125 1.99373 64.9C2.64998 66.1875 3.83123 67.6312 4.90623 68.4687C6.34373 69.5875 7.33748 70.0812 8.99373 70.5C10.6062 70.9062 8.42498 70.875 35.8437 70.875C63.1687 70.875 61.0375 70.9062 62.6562 70.5062C64.0937 70.15 64.9812 69.75 66.2125 68.8875C67.675 67.8625 68.8875 66.45 69.6875 64.8437C70.2625 63.6875 70.675 62.2062 70.8125 60.8C70.8562 60.3687 70.875 51.975 70.8562 35.4375C70.8375 12.2062 70.8312 10.6875 70.7312 10.1875C70.275 7.99999 69.85 6.93124 68.8312 5.48749C68.1812 4.55624 67.4312 3.78124 66.5562 3.13124C65.2 2.11249 64.2375 1.64999 62.75 1.27499C61.0062 0.843742 63.25 0.874992 35.75 0.881241C22.05 0.887489 10.6875 0.912491 10.4937 0.943741ZM56.4562 9.87499C58.0812 10.0625 59.8125 11.2062 60.6875 12.675C61.0437 13.2812 61.3562 14.0812 61.4375 14.5937C61.4812 14.9 61.5 21.3125 61.4875 36L61.4687 56.9687L61.2875 57.4375C60.65 59.1187 59.675 60.25 58.2812 60.9375C57.5125 61.3125 57.175 61.425 56.5687 61.5062C56.2562 61.5437 48.8375 61.5625 35.3125 61.55L14.5312 61.5312L13.8812 61.3C11.9812 60.6187 10.6937 59.325 10.0187 57.4062L9.84373 56.9062V35.7187V14.5312L9.98748 14.0937C10.3437 13.0375 10.8312 12.25 11.575 11.525C12.1437 10.9687 12.6 10.65 13.275 10.3437C13.9062 10.0625 14.3125 9.93749 14.8 9.87499C15.4437 9.79999 55.8 9.79999 56.4562 9.87499Z" fill="#5B9AFF"/>
</svg>
