<svg width="40" height="43" viewBox="0 0 40 43" fill="none" xmlns="http://www.w3.org/2000/svg">
<path d="M18.0312 0.0937462C13.0125 0.768745 8.66875 3.93125 6.25 8.6625C5.16875 10.7625 4.45625 13.4812 4.35625 15.875L4.34375 16.2187L2.55625 16.2375C0.83125 16.25 0.7625 16.2562 0.65 16.3812C0.53125 16.5125 0.53125 16.85 0.53125 29.6062V42.7L0.68125 42.8187C0.825 42.9375 1.2125 42.9375 19.8437 42.9375C38.475 42.9375 38.8625 42.9375 39.0062 42.8187L39.1562 42.7V29.6C39.1562 17.1187 39.15 16.5 39.0437 16.3937C38.9437 16.2937 38.75 16.275 37.1375 16.25L35.3437 16.2187L35.3312 15.875C35.0937 10.1812 31.9937 4.8375 27.3187 2.05625C25.7562 1.125 24.0875 0.512497 22.2187 0.181248C21.2625 0.0124969 18.9937 -0.0375023 18.0312 0.0937462ZM21.4062 7.65625C22.9937 8 24.4062 8.78125 25.5625 9.9375C27.125 11.5062 28.0437 13.5062 28.2812 15.8562L28.3187 16.25H19.8437H11.3687L11.4062 15.8875C11.4937 15.1 11.575 14.6312 11.7187 14.0937C12.3875 11.6187 14.0687 9.49375 16.225 8.39375C17.1 7.95 17.9062 7.69375 18.9687 7.5375C19.3437 7.48125 20.9812 7.5625 21.4062 7.65625ZM20.9625 22.8375C21.9875 23.3062 22.6625 24.2687 22.8125 25.4625C22.9437 26.4937 22.6125 27.475 21.8562 28.3L21.4375 28.75V32.3125V35.875H19.8125H18.1875V32.2937V28.7187L17.7937 28.3062C17.1125 27.5875 16.8125 26.85 16.8125 25.875C16.8125 24.9375 17.1062 24.175 17.7125 23.5187C18.5687 22.5937 19.8562 22.325 20.9625 22.8375Z" fill="#5B9AFF"/>
</svg>
