<svg width="78" height="80" viewBox="0 0 78 80" fill="none" xmlns="http://www.w3.org/2000/svg">
<path d="M55.75 0.0625076C54.8 0.181252 44.0812 0.625008 42.2187 0.625008C41.8625 0.625008 41.8375 0.637505 41.7687 0.793755C41.7312 0.893753 41.4687 1.50001 41.1875 2.15626C40.9062 2.80625 40.6312 3.45 40.5812 3.575C40.4875 3.8 40.4812 3.80625 40.1937 3.76875C39.9375 3.74375 39.7625 3.79375 38.625 4.25001C37.9187 4.53126 35.8937 5.30625 34.125 5.96876C32.3562 6.6375 30.775 7.23125 30.6187 7.3L30.3312 7.425L30.1937 8.06876C30.1187 8.41875 29.95 9.4875 29.8125 10.4313C29.5312 12.375 29.3187 13.5625 29.2562 13.5625C29.225 13.5625 28.4375 13.3688 27.4937 13.1313C26.55 12.8938 24.6625 12.425 23.3 12.0938C20.9 11.5063 20.8125 11.4813 20.8125 11.3375C20.8125 11.1875 20.55 11 20.35 11C20.3 11 19.0562 11.8063 17.5875 12.7875C15.7437 14.025 14.8937 14.5563 14.8187 14.525C14.7625 14.5063 14.625 14.4625 14.5187 14.4375C14.325 14.3938 14.3 14.4063 14.05 14.7125C13.9062 14.8875 13.3187 15.5063 12.7437 16.0938C11.5375 17.3313 11.3437 17.575 11.2437 18.0375C11.175 18.3438 11.1375 18.4 10.9187 18.5063C10.5875 18.6813 10.1875 19.0938 9.92499 19.5375C9.76874 19.8063 9.63749 19.95 9.43124 20.0563C9.28124 20.1375 8.81874 20.425 8.39999 20.6938C7.98124 20.9625 7.45 21.2813 7.20625 21.4C6.925 21.5438 6.75 21.675 6.7 21.775C6.65 21.8813 6.58125 21.9375 6.4875 21.9375C6.40625 21.9313 6.18125 22.0125 5.98125 22.1063L5.61875 22.2813L5.64375 22.55C5.68125 22.8938 5.83125 23.0625 6.10625 23.0625C6.36875 23.0625 6.525 22.9875 6.8125 22.7188C6.93125 22.6063 7.13125 22.4938 7.25 22.475C7.36875 22.45 7.6625 22.3063 7.89999 22.1563C8.36874 21.8563 8.54374 21.8 8.44374 21.9875C8.33749 22.1875 7.725 22.7188 7.33125 22.9625C6.98125 23.1688 6.93125 23.2313 6.85625 23.4875C6.775 23.7688 6.71875 23.8188 5.775 24.5188C3.80625 25.9813 2.11875 27.0625 0.7375 27.7563C0.0625001 28.0938 -0.0437499 28.2188 0.0250001 28.5875C0.06875 28.8063 0.08125 28.8125 0.33125 28.8125C0.625 28.8125 0.949999 28.6375 1.4375 28.2125C1.9625 27.7625 2.5875 27.3313 3.75 26.625C4.3875 26.2375 5.00625 25.8375 5.13125 25.7438C5.25 25.65 5.5625 25.475 5.81875 25.3563C6.075 25.2313 6.50625 24.9938 6.78125 24.825C7.15 24.5875 7.3 24.525 7.35625 24.575C7.40625 24.6188 7.56875 24.625 7.7875 24.6C8.13124 24.5625 8.13124 24.5625 8.05624 24.7C7.81874 25.1563 7.25625 25.8625 6.11875 27.1375L5.5125 27.825L5.475 28.4C5.45625 28.7125 5.425 29.3125 5.4125 29.7375L5.38125 30.5063L5.53125 30.5625C5.725 30.6375 5.73125 30.7188 5.55625 32.45C5.4875 33.1688 5.4375 33.8125 5.45 33.8875C5.4625 33.9813 5.6125 34.075 6.05625 34.2563C6.38125 34.3938 6.6875 34.5375 6.73125 34.575C6.8 34.6313 6.58125 34.7313 5.7625 35.0375L4.7 35.4313L4.4 35.275C4.15625 35.15 4.0375 35.125 3.825 35.15C3.41875 35.2063 2.8625 35.525 2.4 35.9813C1.9625 36.4125 1.7875 36.7188 1.85 36.9688C1.94375 37.3563 2.6125 37.6375 3.43125 37.6438C4.275 37.65 4.675 37.4438 4.99375 36.8438L5.15625 36.5438L6.475 36.0625C7.6375 35.6438 7.81874 35.5938 7.94374 35.6563C8.02499 35.7 8.35624 35.825 8.66874 35.9313C8.98749 36.0375 9.64374 36.2938 10.1312 36.5C10.6187 36.7125 11.2 36.925 11.4312 36.975C11.8812 37.0875 12.6375 37.0625 12.875 36.9375C12.9812 36.8813 13.0562 36.8875 13.225 36.9688C13.3375 37.0188 13.55 37.1063 13.6875 37.1563C13.825 37.2063 14 37.2875 14.0687 37.3375C14.1875 37.4188 14.0812 37.4625 12.775 37.9C11.4625 38.3375 11.3375 38.3688 11.2125 38.2813C10.6687 37.925 9.73749 38.1125 9.11874 38.7063C8.66874 39.1375 8.52499 39.6375 8.71249 40.0938C8.82499 40.3563 8.91874 40.4063 9.51249 40.5C10.6375 40.6813 11.4812 40.3563 11.6187 39.6813L11.6625 39.475L15.1562 38.3063L18.6562 37.1313L18.8562 37.2875C19.0062 37.4 19.0625 37.4938 19.0625 37.6188C19.0625 37.8063 18.9125 37.9875 18.85 37.8813C18.825 37.85 18.8375 37.8063 18.875 37.7813C18.9062 37.7625 18.9375 37.675 18.9375 37.5875C18.9375 37.3688 18.5562 37.2063 18.3187 37.3125C18.1812 37.375 17.6 37.5938 16.5312 37.975C16.3937 38.025 16.2 38.1313 16.0937 38.2125C15.9312 38.3438 15.9187 38.375 15.9812 38.5188C16.05 38.6688 16.0687 38.675 16.325 38.6188C16.475 38.5813 16.875 38.475 17.2187 38.375C17.5625 38.275 18.0437 38.1625 18.2875 38.1188C18.75 38.0438 19.4375 38.0875 19.4375 38.1938C19.4375 38.225 19.1875 38.4938 18.875 38.8C18.3062 39.3563 18.2375 39.4875 18.375 39.7563C18.4687 39.925 18.7937 39.9125 19.0812 39.7188C19.225 39.6188 19.4187 39.3813 19.5937 39.075C20.0625 38.2688 20.0687 38.2625 20.8125 38.0938C21.175 38.0125 21.8062 37.8438 22.2187 37.7188C24.025 37.1625 24.2375 37.1125 24.4 37.2188C24.4875 37.275 24.5687 37.3625 24.5875 37.4125C24.6312 37.5313 25.0062 37.6875 25.2375 37.6875C25.9062 37.6875 26.6437 37.1375 27.0312 36.35C27.3625 35.6813 27.4375 35.3188 27.4812 34.275L27.5187 33.325L27.8375 33.0875C28.8875 32.3 31.8125 30.2938 31.85 30.3313C31.8562 30.3375 32.0937 31.1188 32.375 32.0625C32.6562 33.0063 32.9812 34.1063 33.1 34.5C33.3187 35.2313 34 37.6625 34 37.7063C34 37.7188 34.1187 37.7813 34.2687 37.8375C34.5187 37.9313 34.5375 37.9563 34.6125 38.2813C34.6562 38.4688 34.8437 39.125 35.025 39.7375C35.2062 40.3438 35.3937 40.9875 35.4312 41.1688L35.5125 41.4938L35.0937 42.4188C34.7 43.2813 33.2937 46.3063 32.625 47.725C32.4187 48.1625 32.2187 48.475 31.9562 48.7688C31.0125 49.8063 30.625 50.7375 30.625 51.95C30.625 52.4188 30.6562 52.65 30.7875 53.0375C30.9875 53.6563 31.0125 53.4875 30.0687 57.25L29.3437 60.1563L29.1437 60.1688C29.0312 60.175 28.8437 60.2063 28.725 60.25C28.5375 60.3125 28.4937 60.3625 28.4312 60.5813C28.3937 60.725 28.1875 61.3375 27.9687 61.9375C27.475 63.3 27.3125 63.85 27.3125 64.1563C27.3125 64.3688 27.2687 64.4313 26.8687 64.8C26.3062 65.3313 25.9187 65.8438 25.6187 66.4688C25.3375 67.0563 25.225 67.4688 25.0937 68.4063C24.975 69.2625 24.9187 69.45 24.6312 69.8688C24.425 70.175 24.4062 70.2375 24.4062 70.65C24.4062 70.975 24.4562 71.2188 24.575 71.55L24.7437 72.0063L24.375 73.2938C24.1687 74 23.9562 74.8063 23.9062 75.0813C23.8562 75.3563 23.8 75.5938 23.7875 75.6063C23.775 75.6188 23.5812 75.6813 23.35 75.75C23.125 75.8125 22.7812 75.9375 22.5937 76.025C22.2062 76.2 22.1812 76.2813 22.3437 76.7563C22.4812 77.1438 22.7312 77.4375 23.0375 77.575C23.2875 77.6813 23.4062 77.6875 24.3375 77.65L25.3625 77.6063L25.5687 77.7625C26.2437 78.2625 27.4 78.8 28.3562 79.0563C29.75 79.4313 32.35 79.6188 33.2687 79.4125C33.5375 79.35 33.8312 79.3188 33.925 79.3438C34.025 79.3625 34.3375 79.5188 34.6312 79.6875C35.2 80.025 35.3125 80.0438 35.775 79.9063C35.9437 79.8563 36.2062 79.8125 36.3562 79.8125C36.5062 79.8125 36.725 79.7688 36.8437 79.725C37.0437 79.6375 37.0625 79.6125 37.0625 79.3625C37.0625 79.1625 37.0125 79.0313 36.875 78.85L36.6875 78.6L37.0562 78.4063C38.1562 77.8188 38.8812 76.9625 39.125 75.9688C39.1625 75.7938 39.1875 75.3875 39.175 75.0375L39.1562 74.4125L39.5187 74.275C40.0125 74.0813 40.0562 74.0375 40 73.7938C39.8687 73.2188 39.5437 72.7813 39.025 72.4938C38.7125 72.3125 38.7 72.3 38.625 71.9188C38.5 71.2688 38.125 70.55 37.65 70.0563C37.25 69.6438 37.2375 69.6188 37.3375 69.5125C37.4312 69.4063 37.5062 69.1125 37.5937 68.4875L37.6312 68.2625L38.05 68.225C38.7375 68.1625 39.7 68.0625 39.975 68.025C40.2187 67.9875 40.2562 68.0063 40.6375 68.325C40.8562 68.5188 41.1 68.7 41.1687 68.7438C41.4375 68.8875 41.775 68.825 42.7062 68.4625C42.8937 68.3875 43 68.3125 43 68.2438C43 67.975 42.9062 67.7375 42.6812 67.4688C42.55 67.3063 42.4375 67.1563 42.4437 67.1313C42.4437 67.0813 43.0437 66.6875 43.125 66.6875C43.1562 66.6875 43.1875 66.6625 43.1875 66.6375C43.1875 66.6125 43.3125 66.3813 43.4687 66.125C43.8812 65.4375 43.9187 65.175 43.7937 64.1C43.675 63.125 43.6625 62.75 43.7375 62.75C43.8125 62.75 44.2562 63.075 44.3687 63.2063C44.5375 63.4125 44.875 63.45 45.3812 63.3125C46.4437 63.025 46.3687 63.025 46.9812 63.3C48.9937 64.2063 51.4312 64.6375 53.9375 64.5313L54.9062 64.4938L55.3062 64.75C55.525 64.8938 55.7812 65.0375 55.875 65.0625C56.1125 65.1313 56.5125 65.0375 57 64.7938C57.3562 64.6188 57.4062 64.5688 57.425 64.4063C57.4437 64.2375 57.4062 64.1813 57.1562 64.0063C57 63.8938 56.875 63.7813 56.875 63.7563C56.875 63.725 56.975 63.625 57.0937 63.5375C57.6125 63.1375 57.6937 62.6813 57.625 60.5313C57.5375 57.975 57.5062 57.9063 55.8937 56.85C55.4375 56.55 55.0625 56.2875 55.0625 56.2625C55.0625 56.175 55.4 56.0125 55.8125 55.9063C56.3 55.775 56.6312 55.6 56.7437 55.425C56.7875 55.35 56.8375 55.1375 56.8562 54.9438C56.9 54.4625 56.7312 54.0438 56.15 53.1813C55.8937 52.8 55.675 52.425 55.6562 52.3563C55.6437 52.2813 55.5312 51.4875 55.4062 50.5938C55.2812 49.7 55.1562 48.9625 55.125 48.95C54.95 48.8875 54.75 48.6563 54.7187 48.4813C54.6937 48.3688 54.7125 48.0938 54.75 47.8563C54.7875 47.625 54.8562 46.625 54.9062 45.6375C55.0125 43.625 55.0625 43.2813 55.4 42.4438C55.6187 41.9 55.6437 41.7813 55.6875 41.0063L55.7375 40.1563L56.0875 39.4688C56.2812 39.0938 56.8187 37.925 57.2812 36.875L58.1187 34.9688L58.4312 34.9875L58.7375 35L58.925 34.5188C59.175 33.8625 60.175 31.6063 60.275 31.4688C60.35 31.3625 60.4687 31.3563 62.6 31.4313C63.8312 31.475 64.9562 31.525 65.0875 31.55L65.3375 31.5938L65.5437 32.9063C66.0125 35.8438 66.4937 39.2625 66.9375 42.7688C67.1187 44.2 67.125 44.275 67.0312 44.7188C66.8 45.8625 67.0437 46.8438 67.725 47.475L68.0687 47.8L68.2562 48.975C68.3625 49.625 68.5125 50.6188 68.5875 51.1875L68.725 52.2188L68.55 52.5313C68.4187 52.775 68.3625 52.9938 68.3062 53.4688C68.1875 54.5125 68.1312 54.6625 67.6375 55.1438C67.3187 55.45 67.0937 55.75 66.8125 56.2563C66.2125 57.3125 66.1625 57.4813 66.1625 58.2625V58.925L65.8187 58.9688C65.0062 59.0625 64.4375 59.275 64.0312 59.6375C63.725 59.9063 63.5937 60.1938 63.5062 60.7813C63.4687 61.0563 63.325 61.725 63.1875 62.275C62.8187 63.7375 62.8375 64.3375 63.2687 64.85C63.3625 64.9625 63.4375 65.0688 63.4375 65.0875C63.4375 65.1063 63.3187 65.1813 63.175 65.2563C63.025 65.3313 62.8875 65.425 62.8625 65.4625C62.7062 65.7 62.925 65.9938 63.4687 66.2688C63.6437 66.3563 63.8687 66.4875 63.9687 66.5563C64.1937 66.7125 64.4312 66.7188 65.0812 66.5938C65.8437 66.45 66.1875 66.4688 66.9 66.7188C68.6812 67.3313 71.5999 67.725 73.6562 67.625L74.5312 67.5813L75.1187 67.8813C75.8874 68.2875 76.0499 68.2813 77 67.875C77.5562 67.6375 77.7249 67.5438 77.7374 67.4375C77.7624 67.2875 77.5812 66.975 77.3187 66.725L77.1312 66.5438L77.2374 66.2875C77.3562 66 77.3624 65.675 77.2937 63.1625C77.2562 61.725 77.25 61.6563 77.0937 61.3438C76.8499 60.8375 76.4874 60.5563 75.5187 60.0875C74.3 59.5125 74.2312 59.4688 74.1624 59.275C74.1187 59.1438 74.1312 59.0875 74.2125 59.025C74.3062 58.9563 74.7874 58.8188 75.2624 58.7188C75.6999 58.6313 75.8125 57.9188 75.5374 56.9438C75.4562 56.65 75.3562 56.25 75.3125 56.0625C75.1937 55.55 75.0124 55.0938 74.875 54.9688C74.75 54.8563 74.75 54.8563 74.875 54.6563C74.9437 54.5438 75.0437 54.3375 75.0937 54.1875L75.1875 53.9188L74.6312 52.7375C74.0749 51.5625 73.7249 50.975 73.3437 50.5625C73.15 50.35 73.1375 50.3125 73.0374 49.4063C72.9812 48.8875 72.8499 47.8688 72.7437 47.1375L72.5562 45.8125L72.6937 45.4188C72.8625 44.9438 72.9312 43.775 72.8187 43.2438C72.7125 42.75 72.4312 42.1875 72.1687 41.9563L71.9375 41.7563L71.875 40.8938C71.8187 40.0875 71.7812 39.6875 71.625 37.975C71.5937 37.6 71.5625 37.1313 71.5625 36.9313V36.575L71.8437 36.4125C72 36.3188 72.125 36.2188 72.125 36.1875C72.125 36.1625 72.0812 35.8063 72.0312 35.3938C71.9187 34.4688 71.8312 33.3 71.75 31.5313C71.5062 26.3625 71.4625 25.9125 71.1125 25.2188C70.8687 24.7375 70.5812 24.3813 70.2562 24.1875C70.1187 24.1 70 24.0188 70 24C70 23.9813 70.625 23.8125 71.3937 23.6313C72.1562 23.4438 73.1875 23.175 73.6875 23.0313C74.55 22.7813 74.5937 22.7625 74.6374 22.5875C74.6562 22.4875 74.7125 21.4938 74.75 20.375C74.9062 15.8563 75.1187 11.5 75.2874 9.34376L75.3249 8.8375L74.775 8.58125C73.9749 8.2125 73.3812 7.96876 70.7187 6.93751C69.4125 6.43125 68.125 5.91251 67.85 5.78751C67.5812 5.66251 67.2625 5.56251 67.1437 5.56251H66.9312L66.95 4.29375C66.9625 3.60001 66.9437 2.94376 66.9187 2.8375C66.8687 2.64375 66.8687 2.64375 65.6062 2.31251C64.375 1.99375 62.4312 1.41875 62.3 1.3375C62.2625 1.31251 62.0937 1.3 61.9187 1.30625C61.7437 1.30625 61.4437 1.25626 61.25 1.18751C61.0625 1.12501 60.3375 0.925003 59.6375 0.756256C58.9375 0.581253 58.3375 0.425003 58.3062 0.406258C58.2812 0.387505 58.0625 0.300003 57.8312 0.212502C57.3562 0.0312576 56.4875 -0.0312424 55.75 0.0625076ZM53.3687 32.6313C53.3 32.7625 53.3187 32.7938 53.5187 32.9625L53.7437 33.1563L53.1625 34.375C52.8437 35.0438 52.075 36.6063 51.4562 37.8438C50.8375 39.0813 50.2437 40.3375 50.1375 40.6375C49.6937 41.875 49.6312 42.9313 49.9625 43.6688C50.0625 43.8875 50.1812 44.0938 50.225 44.1313C50.3687 44.25 50.325 44.9875 50 47.775C49.8125 49.3688 49.8625 49.225 49.4562 49.3563C49.0562 49.4938 49.1437 49.3313 48.4312 51.3375C48.1875 52.0313 47.875 52.75 47.5312 53.4125C47.0187 54.3875 46.75 55.1313 46.75 55.5688C46.75 55.7063 46.6375 55.8375 46.175 56.25C45.5562 56.7938 45.5625 56.7875 45.1812 57.85C45.05 58.2375 44.7937 58.875 44.6187 59.2625C44.35 59.85 44.2937 60.0438 44.2687 60.4375C44.2437 60.775 44.2625 60.9688 44.3312 61.1375L44.425 61.3625L44.0625 61.525C43.8687 61.6125 43.675 61.6875 43.6437 61.6875C43.6062 61.6875 43.5625 61.55 43.5375 61.3813C43.45 60.7063 42.8687 59.9125 42.0875 59.3938L41.7437 59.1688L42.0125 59.0313C42.6562 58.7063 42.8312 57.55 42.325 56.9688C42.2187 56.85 42.0687 56.5375 41.9687 56.2375C41.7562 55.5938 41.6562 55.3938 41.4375 55.1563C41.225 54.925 41.1937 54.775 41.125 53.5313C41.0562 52.3875 41 52.125 40.7375 51.7938L40.5562 51.5563L40.6562 50.2313C40.7125 49.5063 40.8 48.4563 40.8437 47.9063C40.8937 47.3563 40.9937 46.1688 41.075 45.2625L41.2187 43.6125L41.3937 43.65C41.55 43.6813 41.5875 43.6563 41.725 43.4188C42.0375 42.9 44.4625 38.3813 45.2 36.9375C46.3437 34.7063 46.4062 34.6313 47.2312 34.35C47.5687 34.2313 48.5187 33.8813 49.3437 33.5625L50.8375 32.9875L51.75 32.9063C52.7125 32.8188 52.8437 32.7875 53.1875 32.5438C53.425 32.375 53.4875 32.4125 53.3687 32.6313ZM23.8312 77.0438C23.7875 77.0563 23.7125 77.0563 23.675 77.0438C23.6312 77.025 23.6625 77.0125 23.75 77.0125C23.8375 77.0125 23.8687 77.025 23.8312 77.0438ZM24.4562 77.0438C24.4125 77.0563 24.3375 77.0563 24.3 77.0438C24.2562 77.025 24.2875 77.0125 24.375 77.0125C24.4625 77.0125 24.4937 77.025 24.4562 77.0438Z" fill="#5B9AFF"/>
</svg>
