<svg width="74" height="73" viewBox="0 0 74 73" fill="none" xmlns="http://www.w3.org/2000/svg">
<path d="M36.0895 0.381248C35.4917 0.449997 35.1303 0.543747 34.5604 0.781242C32.7324 1.5375 30.967 3.24999 29.3892 5.8L28.9513 6.50625L28.6316 6.45625C28.1103 6.38125 27.2067 6.41875 26.7689 6.53124C26.1155 6.7 25.5664 6.99999 25.0451 7.46874C24.225 8.20625 23.8983 8.93124 23.8983 10C23.8983 10.8125 24.079 11.3875 24.5239 11.975L24.7324 12.2562L24.4961 13.3937C24.2945 14.3312 23.9331 16.4 23.7246 17.7625C23.7037 17.9312 23.669 18.0625 23.6551 18.0625C23.6412 18.0625 23.0712 17.925 22.3901 17.7562C19.4153 17.0187 16.7324 16.55 13.8549 16.275C12.4926 16.1437 9.0799 16.125 8.01648 16.2437C4.88181 16.5937 2.94958 17.4312 1.8653 18.9187C1.22586 19.7875 0.954792 20.6562 0.954792 21.8125C0.947841 24.4937 2.85227 27.7062 6.8905 31.8437C7.74541 32.7125 10.4005 35.1 11.5821 36.05C12.159 36.5187 12.6385 36.9187 12.6385 36.9375C12.6385 36.9562 12.1034 37.4187 11.45 37.9687C6.80709 41.8875 3.2276 46.1437 1.91396 49.3125C0.426556 52.9 1.55948 55.725 4.99302 57C6.38311 57.5187 8.10683 57.7625 10.3935 57.7687H11.9296L12.0964 58.0875C12.6872 59.2312 14.0008 60.025 15.4187 60.1062C16.7949 60.1812 18.1086 59.6187 18.9426 58.6L19.2484 58.225L20.0269 58.0125C20.9096 57.775 22.7376 57.1687 24.079 56.6687L24.9895 56.3312L25.2189 57.2125C26.5882 62.5187 28.5968 66.9 30.9461 69.7125C32.4474 71.5062 34.0321 72.5625 35.7002 72.8687C36.1729 72.9562 37.2015 72.9562 37.6742 72.8687C41.2467 72.2125 44.1868 68.5937 46.7376 61.7187C47.516 59.6125 47.9609 58.1687 48.5378 55.8562C48.6629 55.3437 48.781 54.9187 48.7949 54.9C48.8088 54.8875 49.3093 55.0062 49.9001 55.1625C56.0999 56.7937 62.3484 57.5437 66.1711 57.1187C69.132 56.7937 71.2102 55.8312 72.3084 54.2875C73.2815 52.9187 73.3649 51.1 72.5517 48.9187C72.2736 48.175 71.4465 46.6625 70.8279 45.7687L70.3414 45.075L70.5708 44.875C70.9114 44.575 71.3492 43.8312 71.5091 43.2875C71.8705 42.0125 71.523 40.8687 70.5082 39.9687C69.6186 39.1812 68.576 38.8375 67.2693 38.8937L66.5395 38.925L65.7054 38.3C65.0104 37.7812 63.0573 36.4 62.2928 35.9L62.0981 35.7687L64.0095 34.0562C66.5951 31.7437 68.152 30.0937 69.6742 28.0562C71.9261 25.0625 72.9756 22.4 72.6976 20.4375C72.3362 17.875 70.3067 16.2562 66.7411 15.675C65.9279 15.5437 65.6359 15.5312 63.6898 15.5312C61.5282 15.5312 61.1737 15.5562 59.0677 15.8187C56.7254 16.1125 53.3336 16.8187 50.4839 17.6C49.6429 17.8312 48.8922 18.0187 48.8227 18.025C48.7046 18.0312 48.649 17.8937 48.3918 16.875C47.1824 12.075 45.271 7.46249 43.3319 4.66875C41.5247 2.06249 39.4882 0.624992 37.2432 0.374992C36.9235 0.343742 36.6246 0.318748 36.5829 0.318748C36.5482 0.324997 36.3188 0.349998 36.0895 0.381248ZM38.3275 1.18749C39.4535 1.45 40.2945 1.9125 41.344 2.87499C43.5265 4.85625 45.5421 8.71874 47.1546 13.9937C47.5647 15.3437 48.3223 18.2062 48.2667 18.225C48.2667 18.225 47.669 18.4187 46.9392 18.65C46.2163 18.8812 44.9791 19.3 44.2007 19.575C43.0677 19.975 42.7758 20.0625 42.7272 19.9937C42.6924 19.9437 42.0182 18.9437 41.2259 17.7625L39.7941 15.625H36.2563C33.4761 15.625 32.7254 15.6437 32.7254 15.7C32.7254 15.8312 30.0703 19.75 29.98 19.75C29.9313 19.75 29.7159 19.6937 29.4865 19.6187C29.2641 19.55 28.6872 19.3812 28.2076 19.25L27.3388 19.0125L27.3527 18.8C27.3805 18.3812 28.3744 15.3062 28.9166 13.9625L29.1181 13.4562L29.6533 13.2187C30.2997 12.9312 31.0573 12.275 31.384 11.7187C32.0512 10.5687 32.0165 9.24375 31.2867 8.1375C31.0434 7.7625 30.4596 7.20625 30.0912 6.99374L29.9174 6.89999L30.3484 6.1625C31.1685 4.7625 32.3432 3.30624 33.2676 2.55624C33.7402 2.16875 34.6646 1.6125 35.1303 1.43124C36.1173 1.05 37.3197 0.956245 38.3275 1.18749ZM65.9626 15.9062C68.8888 16.25 70.7445 17.3187 71.5577 19.1375C72.7324 21.7562 70.9878 25.5187 66.3032 30.4375C64.7324 32.0875 61.3127 35.1687 61.1181 35.1062C61.0764 35.0875 60.4926 34.7312 59.8253 34.3125C57.3788 32.7625 54.2511 30.9312 51.6168 29.5C50.5951 28.9437 50.3101 28.7625 50.3101 28.6625C50.3101 28.4125 50.0321 25.7687 49.8931 24.7187C49.6498 22.8875 49.1286 19.8812 48.8575 18.8062C48.8227 18.6562 48.8019 18.525 48.8158 18.5062C48.8366 18.4937 49.1216 18.4 49.4552 18.3C53.6464 17.075 58.0252 16.1937 61.5352 15.8812C62.5291 15.7875 65.1147 15.8062 65.9626 15.9062ZM11.457 17C14.814 17.1687 18.3171 17.7437 22.4248 18.7937L23.5508 19.0812L23.516 19.275C23.2867 20.55 22.8488 25.3125 22.7028 28.2375L22.6194 29.9562L22.1955 30.225C19.7558 31.7875 19.033 32.2625 17.9557 33C16.4544 34.0375 15.2241 34.9375 13.9522 35.9312L13.0069 36.6687L12.1451 35.9812C9.48998 33.8625 6.77234 31.3062 4.98607 29.2562C3.49172 27.5312 2.22673 25.5687 1.73325 24.2125C1.39962 23.2875 1.28841 22.5937 1.33012 21.7812C1.39267 20.6375 1.7541 19.8187 2.53255 19.0625C3.93655 17.7 6.2302 17.0437 9.92786 16.95C10.1016 16.9437 10.7897 16.9687 11.457 17ZM48.4405 18.9812C48.8436 20.875 49.2745 23.5437 49.5108 25.5C49.6568 26.7625 49.8167 28.4625 49.7888 28.4875C49.7749 28.5 49.3093 28.2687 48.7463 27.9812L47.7246 27.45L45.5699 24.2375C42.7758 20.0812 43.0399 20.5 43.1581 20.4312C43.3805 20.3062 47.2797 18.95 48.225 18.675C48.364 18.6312 48.371 18.6375 48.4405 18.9812ZM28.0895 20.475C28.6733 20.6687 29.1737 20.85 29.2085 20.875C29.2432 20.9062 28.4926 22.075 27.5404 23.4937C26.5882 24.9062 25.8027 26.0375 25.7888 26.0062C25.761 25.9312 26.2962 23.1625 26.616 21.75C26.7758 21.0437 26.9218 20.3937 26.9357 20.2937C26.9565 20.2 26.9843 20.125 27.0052 20.125C27.0191 20.125 27.5056 20.2812 28.0895 20.475ZM22.5013 30.95C22.4179 31.0937 16.8783 39.325 16.8366 39.3687C16.8227 39.3812 16.6837 39.3125 16.5239 39.2125C16.218 39.025 13.9383 37.3812 13.563 37.0812L13.3405 36.9062L14.2858 36.1875C16.4822 34.5125 18.9009 32.8437 21.3266 31.3187C22.3692 30.6625 22.543 30.5687 22.5638 30.6812C22.5777 30.75 22.5499 30.8687 22.5013 30.95ZM39.4257 35.4625C40.8644 37.6562 42.0321 39.4687 42.0182 39.4812C42.0043 39.4937 39.4813 39.4937 36.4231 39.4875L30.8488 39.4687L33.7819 35.4187C35.3944 33.1937 36.7359 31.3937 36.7637 31.4187C36.7915 31.45 37.9869 33.2687 39.4257 35.4625ZM52.013 32.7125C54.2928 34.2812 58.3032 37.2375 58.3032 37.3437C58.3032 37.4 55.662 39.275 55.6342 39.2375C55.6203 39.225 53.2154 35.6375 50.6994 31.8875C50.609 31.75 50.7063 31.8062 52.013 32.7125ZM15.0573 38.7C15.7246 39.1812 16.3223 39.6 16.3988 39.6437C16.4683 39.6812 16.5308 39.7437 16.5308 39.7687C16.5308 39.8 15.4465 41.4312 14.119 43.3937C12.7915 45.3625 11.7072 47.0125 11.7072 47.0625C11.7072 47.1125 12.43 48.275 13.3058 49.6437L14.9044 52.1312L19.4153 52.1437L23.9261 52.1562L24.0165 52.4687C24.1485 52.9375 24.1416 52.975 23.8497 53.05C22.3136 53.4187 19.9087 53.95 19.3805 54.0375L18.7133 54.1437L18.4074 53.8812C17.9557 53.5 16.9687 53.0812 16.3084 52.9875C14.6959 52.7625 12.7984 53.6125 12.0825 54.8812C11.867 55.2562 11.6655 56 11.6655 56.4125V56.7937L10.8175 56.8312C9.8514 56.8812 8.26669 56.8 7.32838 56.6562C4.92351 56.2875 3.12334 55.275 2.35184 53.85C1.99041 53.1875 1.85835 52.7312 1.81665 51.9625C1.65679 49.25 3.9296 45.575 8.44046 41.2187C9.43437 40.2625 11.589 38.3375 12.4231 37.6687L13.0069 37.1937L13.4309 37.5125C13.6672 37.6875 14.397 38.225 15.0573 38.7ZM60.5551 39.2187C61.8549 40.3375 62.7376 41.175 63.3284 41.8312C63.6342 42.175 63.6551 42.2312 63.6551 42.5562C63.6551 43.0187 63.8844 43.75 64.1763 44.2187C64.6003 44.9062 65.4066 45.4937 66.4074 45.8312C66.7619 45.95 66.9496 45.9687 67.7558 45.9687C68.5551 45.9625 68.7497 45.9437 69.0695 45.8312C69.278 45.7562 69.4726 45.7062 69.5004 45.725C69.6047 45.7812 70.6125 47.2562 70.9461 47.8375C71.8427 49.4062 72.2041 50.55 72.2041 51.8125C72.2041 53.9687 70.7515 55.6062 68.159 56.375C65.2328 57.2375 60.6455 57.05 54.4596 55.8187C52.8957 55.5 49.6915 54.7312 49.0451 54.5062L48.8714 54.45L49.066 53.4875C49.1772 52.9625 49.2815 52.4375 49.3023 52.3312L49.344 52.125L52.4439 52.1125L55.5508 52.0937L57.6776 48.9875C58.8453 47.2812 59.8462 45.8437 59.8879 45.7937C59.9643 45.7125 59.6863 45.2687 58.2406 43.1125C57.2815 41.6875 56.4822 40.4812 56.4613 40.425C56.4335 40.3625 56.6698 40.1437 57.2398 39.7062C57.6915 39.3562 58.3101 38.8625 58.616 38.6062C58.9218 38.3437 59.1998 38.1312 59.2276 38.125C59.2554 38.125 59.8531 38.6187 60.5551 39.2187ZM26.9565 52.1562C26.9565 52.1812 25.4066 52.6312 25.3857 52.6062C25.3788 52.6 25.3579 52.4875 25.3301 52.3562L25.2815 52.125H26.1225C26.5812 52.125 26.9565 52.1375 26.9565 52.1562ZM42.1294 52.7187C43.9157 53.3562 45.6603 53.9375 47.2519 54.4062C47.808 54.575 48.2875 54.7312 48.3223 54.7562C48.4961 54.8937 47.3075 59.2375 46.4109 61.7187C44.3675 67.4062 41.9626 70.8625 39.245 72C37.6255 72.675 35.874 72.5437 34.2893 71.6187C33.5873 71.2062 32.3501 70.0937 31.7524 69.325C29.6394 66.625 27.596 61.9875 26.331 57C26.185 56.4312 26.0877 55.95 26.1155 55.925C26.1364 55.9 26.8036 55.6312 27.5821 55.325C29.5004 54.5687 31.523 53.725 33.483 52.85L35.1164 52.125H37.7993H40.4822L42.1294 52.7187ZM48.8853 52.2625C48.8714 52.3437 48.7741 52.825 48.6768 53.3375C48.5795 53.8562 48.4822 54.2875 48.4683 54.3062C48.4196 54.3437 48.0304 54.2312 46.2789 53.675C44.6594 53.1625 41.9001 52.2 41.9001 52.15C41.9001 52.1375 43.4778 52.125 45.41 52.125H48.92L48.8853 52.2625Z" fill="#5B9AFF"/>
</svg>
