<svg width="80" height="89" viewBox="0 0 80 89" fill="none" xmlns="http://www.w3.org/2000/svg">
<path d="M35.1724 5.09654V10.2L34.6069 10.531L34.0345 10.869L34.0138 11.7241L33.9931 12.5793L34.4621 13.0483L34.9241 13.5172H35.7931H36.6621L37.1241 13.9862L37.5862 14.4552V15.8276V17.2069L36.9862 17.8069C36.4 18.4 36.3862 18.4138 36.3862 18.7517C36.3793 19.0483 36.3448 19.1379 36.1655 19.3172C35.6 19.8759 34.7586 19.5034 34.7586 18.6827C34.7586 18.4552 34.8 18.3586 34.9931 18.1655C35.1862 17.9724 35.2758 17.931 35.531 17.931C35.6965 17.931 35.8965 17.9724 35.9724 18.0276C36.1034 18.1172 36.1448 18.0896 36.6414 17.6069L37.1724 17.0827V15.8345V14.5793L36.8069 14.2207L36.4414 13.8621H35.5793H34.7241L34.1517 13.2896L33.5793 12.7172L33.6 11.6896L33.6207 10.6621L34.1931 10.3241L34.7586 9.9862V5.02758V0.0689545H34.3655C34.1448 0.0689545 33.8965 0.0896454 33.8138 0.110336L33.6552 0.151718V4.71723V9.28275L33.2758 9.65517L32.8965 10.0276V11.4827V12.931L33.9172 13.9517L34.9448 14.9793L35.1793 14.8345C35.5379 14.6138 35.8827 14.6414 36.1724 14.9103C36.9034 15.5862 36.1241 16.6965 35.2414 16.2414C34.9793 16.1034 34.8276 15.8828 34.8276 15.6207C34.8276 15.4414 34.6621 15.2483 33.6896 14.2759L32.5517 13.1379V11.4827V9.82068L32.8965 9.48275L33.2414 9.14482V4.64137C33.2414 0.248268 33.2414 0.137924 33.1103 0.137924C32.7379 0.137924 32.7586 -0.103455 32.7586 4.13103V8.04137L32.4827 8.31033L32.2069 8.5793V10.8965V13.2069L33.069 14.069L33.931 14.931V17.7724V20.6069L34.5379 20.9586C35.0758 21.269 35.1724 21.2965 35.3655 21.2483C35.9448 21.0759 36.531 21.6552 36.3862 22.2414C36.2621 22.731 35.669 23.0069 35.2138 22.7931C34.869 22.6276 34.731 22.3448 34.7793 21.9034L34.8138 21.5517L34.2 21.2069L33.5862 20.8621V18V15.1379L32.6896 14.2414L31.7931 13.3448V10.8965V8.44137L32.1034 8.13792L32.4138 7.83447V4.01379V0.199989L32.0207 0.241371C31.8 0.262062 31.5517 0.296539 31.469 0.31723L31.3103 0.344818V6.74482C31.3103 10.2621 31.2896 13.2069 31.269 13.2896C31.2138 13.4896 31.7034 14.0069 32.3793 14.469C33.2207 15.0483 33.3931 15.5517 32.9379 16.0552C32.7241 16.2896 32.669 16.3103 32.3448 16.3103C32.0207 16.3103 31.9655 16.2896 31.7517 16.0552C31.5793 15.8621 31.5172 15.731 31.5172 15.5517C31.5172 15.2552 31.6621 14.9448 31.8759 14.7931C32.0345 14.6827 32.0345 14.6827 31.8965 14.6069C31.8207 14.5655 31.5586 14.3379 31.3241 14.0896L30.8827 13.6483L30.931 11.6C30.9586 10.4759 30.9586 7.48275 30.931 4.95861C30.8827 0.765511 30.869 0.365509 30.7655 0.3862C30.7034 0.399994 30.5103 0.427574 30.331 0.448265L30 0.489647V3.63448V6.7793L30.3448 7.3793L30.6896 7.9793V12.0483V16.1103L31.6483 17.0345C32.1724 17.5448 32.7103 18.0483 32.8345 18.1517C33.0483 18.3172 33.069 18.3655 33.069 18.7103C33.069 19.0207 33.0345 19.1241 32.9034 19.269C32.3655 19.8414 31.4483 19.4896 31.4483 18.7103C31.4483 18.4483 31.4827 18.3655 31.6965 18.1517L31.9379 17.9103L31.1103 17.0759L30.2759 16.2414V12.1379V8.04137L29.931 7.43447L29.5862 6.82758V3.68275V0.544815L29.2621 0.586197C29.0759 0.613785 28.8207 0.655167 28.6896 0.682747L28.4483 0.731026L28.4276 4.25517L28.4138 7.7793L28.6965 7.74482C29.1931 7.67585 29.6552 8.06206 29.6552 8.55171C29.6552 8.79999 29.4621 9.13792 29.2483 9.26206C28.8827 9.47585 28.3103 9.35861 28.131 9.02068C28.069 8.91034 28.0552 7.79309 28.0621 4.84827C28.0759 0.882751 28.0759 0.827576 27.9379 0.827576C27.6965 0.827576 25.1793 1.35172 24.7655 1.48965C24.6965 1.51034 24.7586 1.62068 24.9862 1.84827L25.3103 2.1793V4.62068V7.06895L27.6896 9.44827L30.069 11.8276V14.2069V16.5862L30.3793 17.1034L30.6896 17.6207V18.8552V20.0827L31.2414 20.6552L31.8 21.2207L32.2138 21.2138C32.6138 21.2069 32.6414 21.2207 32.869 21.4621C33.1586 21.7793 33.1862 22.131 32.9448 22.4896C32.531 23.1103 31.5655 22.8896 31.469 22.1517C31.4345 21.9172 31.331 21.7793 30.6827 21.131L29.931 20.3793V19.1241V17.8621L29.5862 17.2552L29.2414 16.6483V14.3379V12.0345L26.8965 9.68964L24.5517 7.34482V4.93102V2.52413L24.1655 2.13103L23.7793 1.74482L23.2896 1.88275C23.0138 1.95861 22.7793 2.03448 22.7655 2.04826C22.7448 2.06206 22.9724 2.31033 23.2621 2.60689L23.7931 3.13792V5.48275V7.82068L26.1724 10.2069L28.5517 12.5862V14.931V17.269L29.1379 17.869C29.6965 18.4414 29.7241 18.4759 29.7241 18.7793C29.7241 19.3448 29.2138 19.7517 28.6965 19.6C28.1586 19.4345 27.9172 18.8621 28.1931 18.3931L28.331 18.1517L28.0621 17.8896L27.7931 17.6276V15.2414V12.8621L25.4138 10.4827L23.0345 8.10344V5.79309V3.48275L22.4552 2.90344L21.8759 2.33102L21.2138 2.55171C20.8483 2.66895 20.531 2.79999 20.5103 2.84137C20.4827 2.88275 20.9793 3.42757 21.6138 4.06206L22.7586 5.20689V6.79309V8.3793L23.8276 9.44827L24.8965 10.5172V10.9448V11.3793H25.1241C25.4276 11.3793 25.6552 11.5103 25.8414 11.7862C26.2207 12.3517 25.8138 13.0345 25.1034 13.0345C24.8621 13.0345 24.7724 12.9931 24.5724 12.7931C24.3448 12.5655 24.331 12.5379 24.3793 12.1931C24.4 11.9931 24.4345 11.5655 24.4552 11.2414L24.4896 10.6552L23.4138 9.5862L22.3448 8.51723V6.91723V5.31033L21.1793 4.14482L20.0207 2.9724L19.8 3.05516C19.6828 3.09654 19.5862 3.15172 19.5862 3.1724C19.5862 3.19309 20.131 3.75172 20.7931 4.41379L22 5.62068V7.06895V8.51723L23.0345 9.55171L24.069 10.5862V11.8621V13.1379L24.4759 13.3586C24.8621 13.5724 24.931 13.5862 25.5655 13.5862H26.2414L26.8414 14.1862L27.4483 14.7931V18.8276V22.8552L27.8414 23.2552L28.2345 23.6552H34.3793H40.5172L41.0483 23.1172L41.5793 22.5862L41.5034 22.3103C41.4414 22.0759 41.4483 21.9862 41.5517 21.7724C41.8621 21.1172 42.7931 21.1586 43.0758 21.8414C43.3379 22.4552 42.6827 23.1448 42.069 22.9103C41.9103 22.8483 41.8414 22.8965 41.269 23.4552L40.6414 24.069H34.3724H28.0965L27.6 23.5655L27.1034 23.069V19.0345V14.9931L26.6 14.4965L26.1034 14H25.4483L24.7931 13.9931L24.2414 13.669L23.6896 13.3379L23.669 12.0276L23.6552 10.7172L22.6552 9.72413L21.6552 8.72413V7.24137V5.75861L20.4276 4.53103C19.5103 3.61378 19.1724 3.31723 19.0828 3.35172C19.0207 3.37241 18.9655 3.39999 18.9655 3.41379C18.9655 3.42068 19.4621 3.92413 20.069 4.53103L21.1724 5.63448V7.35172V9.06895L22.1655 10.0621L23.1655 11.0621V12.0276L23.1586 13L24.131 13.9379L25.0965 14.869L25.5103 14.8414C25.9103 14.8138 25.9379 14.8207 26.1724 15.0552C26.3724 15.2552 26.4138 15.3448 26.4138 15.5793C26.4138 15.9724 26.2621 16.2345 25.9586 16.3793C25.6345 16.531 25.2827 16.469 25.0276 16.2138C24.7931 15.9724 24.7172 15.7103 24.8069 15.4138L24.8827 15.1862L23.8207 14.1724L22.7586 13.1586V12.1517V11.1379L21.7586 10.1379L20.7586 9.13792V7.44827V5.75861L19.669 4.66895C18.6 3.59999 18.5724 3.5793 18.3793 3.65517L18.1793 3.73103L19.3655 4.91723L20.5517 6.10344V7.75861V9.41379L21.5517 10.4138L22.5517 11.4138V12.4138V13.4138L23.3793 14.2414L24.2069 15.069V17.7586V20.4414L24.6621 20.9034L25.1172 21.3586L25.3655 21.2759C25.6827 21.1655 25.9793 21.2483 26.2276 21.5172C26.5724 21.8965 26.4414 22.5655 25.9724 22.7862C25.6827 22.9241 25.5793 22.9241 25.2759 22.8C24.931 22.6552 24.7448 22.3172 24.7931 21.931L24.8276 21.6207L24.3103 21.1034L23.7931 20.5931V17.9034V15.2138L22.9655 14.3793L22.1379 13.5379V12.5103V11.4827L21.1379 10.4827L20.1379 9.48275V7.86206V6.24137L18.9793 5.08275L17.8207 3.92413L17.4552 4.07585L17.0965 4.22758L18.2 5.33792L19.3103 6.44827V8.24137V10.0345L20.3448 11.069L21.3793 12.1034V13.7379C21.3793 14.6414 21.4069 15.3793 21.4345 15.3793C21.4621 15.3793 21.5448 15.2828 21.6138 15.1655C21.8759 14.7241 22.5241 14.6552 22.9034 15.0276C23.4345 15.5655 23.0621 16.4138 22.2896 16.4138C21.9793 16.4138 21.7103 16.2345 21.5517 15.9241C21.469 15.7724 21.3931 15.7241 21.2414 15.7241H21.0345V14.0138V12.3103L19.9655 11.2414L18.8965 10.1724V8.3793V6.5862L17.8345 5.52413C16.8552 4.54482 16.7586 4.46896 16.5793 4.51034C16.4 4.55861 16.4276 4.59309 17.5724 5.75172L18.7586 6.93792V9.11723V11.2965L18.9862 11.3379C19.5448 11.4414 19.8276 12.1448 19.5034 12.6207C19.0483 13.2896 18 12.9931 18 12.1931C18 11.931 18.1793 11.5172 18.2896 11.5172C18.3172 11.5172 18.3448 10.5172 18.3448 9.28965V7.06895L17.2207 5.94482C16.6069 5.33102 16.0552 4.82758 16 4.82758C15.9448 4.82758 15.8276 4.88275 15.7379 4.95171L15.5862 5.06895L16.4138 5.89655L17.2414 6.72413V9.62068V12.5241L17.7103 12.9862L18.1793 13.4483H19.5379H20.8965V15.2207V17L21.3862 17.4896L21.869 17.9793L22.131 17.9103C22.6828 17.7586 23.2483 18.3034 23.1379 18.8759C22.9931 19.669 21.931 19.8069 21.5586 19.0759C21.4414 18.8483 21.4345 18.7655 21.5034 18.5241L21.5793 18.2414L21.069 17.7241L20.5517 17.2069L20.5379 15.5172L20.5172 13.8276L19.2414 13.8069L17.9655 13.7931L17.4 13.2207L16.8276 12.6552V9.72413V6.79309L16.0345 5.99999C15.2621 5.23447 15.2414 5.21378 15.069 5.31033L14.8896 5.40689L15.6896 6.20689L16.4828 6.99999V9.93102V12.8621L17.7241 14.0552L18.9655 15.2552V18.2138V21.1724L19.2 21.269C19.6345 21.4483 19.8207 21.9448 19.6207 22.3655C19.2414 23.1724 18.0414 22.8965 18.0552 22.0069C18.0621 21.6896 18.2 21.4414 18.4483 21.3103L18.6207 21.2207V18.3517V15.4827L17.3448 14.2069L16.069 12.931V10.0345V7.13792L15.3103 6.3793L14.5586 5.62758L14.3103 5.75861C14.1793 5.83447 14.069 5.91034 14.069 5.93102C14.069 5.95171 14.3793 6.27586 14.7586 6.65517L15.4483 7.34482V10.3103V13.2759L16.2069 14.0345L16.9655 14.7931V18.9034V23.0207L17.5862 23.3724L18.2069 23.7241H19.4H20.5862L21.131 23.1793L21.6759 22.6345L21.5655 22.3931C21.4207 22.0965 21.4207 21.9931 21.5448 21.6896C21.6621 21.4138 22.0138 21.1724 22.3103 21.1724C22.6069 21.1724 22.9586 21.4138 23.0759 21.6896C23.2 21.9931 23.2 22.0965 23.0621 22.3862C22.9241 22.669 22.6276 22.8414 22.2827 22.8414C22.0621 22.8345 21.9655 22.9034 21.4069 23.4552L20.7793 24.0827L19.4 24.069L18.0138 24.0621L17.3172 23.669L16.6276 23.2759L16.6207 19.1379V15L15.8621 14.2414L15.1034 13.4827V10.5172V7.55171L14.3862 6.83447C13.9103 6.35861 13.6552 6.15172 13.6207 6.20689C13.5862 6.26206 13.8 6.51723 14.2 6.92413L14.8276 7.55171V10.5517V13.5517L15.4483 14.1724C15.7931 14.5103 16.069 14.8276 16.069 14.8759C16.069 14.9241 16.131 15.0621 16.2069 15.1862C16.5517 15.7517 16.1586 16.4827 15.5172 16.4827C15.0896 16.4827 14.6896 16.0827 14.6896 15.6552C14.6896 15.2483 15.0345 14.8276 15.3793 14.8276C15.4552 14.8276 15.5172 14.8138 15.5172 14.8C15.5172 14.7793 15.2828 14.5379 15 14.2621L14.4828 13.7586V10.7241V7.68964L13.8621 7.06895C13.1862 6.39999 13.2207 6.40689 12.7586 6.75861L12.5862 6.88965L13.2276 7.53103L13.8621 8.1724V12.6207V17.069L14.4 17.6069L14.9379 18.1448L15.2069 18.0276C15.7448 17.8069 16.269 18.1448 16.331 18.7517C16.3586 19.0759 16.3448 19.1172 16.1241 19.3379C15.7103 19.7517 15.3241 19.7517 14.9172 19.3448C14.7034 19.131 14.6828 19.069 14.6965 18.7931C14.7172 18.4827 14.7103 18.4759 14.0828 17.8414L13.4483 17.2069V12.7586V8.31033L12.8621 7.72413C12.3034 7.16551 12.2759 7.15172 12.0965 7.23447L11.9103 7.31723L12.1586 7.5724L12.4138 7.83447V9.5862V11.3379L12.6276 11.5586C13.2069 12.1586 12.7724 13.0414 11.9379 12.9448C11.5103 12.8965 11.2414 12.6 11.2414 12.1862C11.2483 12.0276 11.2828 11.8276 11.3379 11.7379C11.4414 11.5448 11.7793 11.3103 11.9517 11.3103C12.0621 11.3103 12.069 11.1862 12.069 9.66895V8.02758L11.8414 7.80688L11.6069 7.5793L11.1172 7.96551L10.6207 8.35172V10.6069V12.8621L11.6621 13.8965C12.2345 14.469 12.7448 15.0138 12.8 15.1172C13.0965 15.6758 12.6965 16.3448 12.069 16.3448C11.2207 16.3448 10.9172 15.1724 11.669 14.7862L11.8828 14.6758L11.0828 13.8759L10.2759 13.069L10.2621 10.8759L10.2414 8.67585L9.64138 9.20689L9.03448 9.73792V10.5586C9.03448 11.3172 9.04138 11.3724 9.17931 11.4138C9.37241 11.4759 9.5862 11.8483 9.5862 12.1241C9.5862 12.9793 8.47586 13.2828 8.04138 12.5517C7.80689 12.1448 7.9862 11.5586 8.40689 11.3793L8.62069 11.2965V10.731L8.61379 10.1724L7.96551 10.8414L7.31034 11.5103V12.3241V13.1448L7.53793 13.3655L7.76551 13.5862H8.83448H9.90345L10.2621 14.2L10.6207 14.8207V15.9103V17L11.1448 17.5241C11.6552 18.0414 11.6759 18.0483 11.9586 18.0207C12.5034 17.9586 12.8965 18.3103 12.8965 18.869C12.8965 19.2276 12.469 19.6552 12.1103 19.6552C11.5862 19.6552 11.2414 19.3103 11.2414 18.7724C11.2414 18.6276 11.2759 18.4759 11.3241 18.4276C11.3931 18.3586 11.2828 18.2138 10.8069 17.7379L10.2069 17.1379V16V14.869L9.93103 14.4L9.64827 13.931H8.6H7.54483L7.22069 13.6L6.89655 13.269V12.6621C6.89655 12.0552 6.89655 12.0483 6.75862 12.1724C6.63448 12.2896 6.62069 12.3862 6.62069 13.3724V14.4552L7.05517 14.8828C7.4 15.2276 7.53103 15.3103 7.71034 15.3103C7.88276 15.3103 7.95172 15.269 8.02758 15.1103C8.17931 14.8276 8.42758 14.6896 8.8 14.6896C9.06896 14.6896 9.15172 14.7241 9.35172 14.9241C9.54482 15.1172 9.5862 15.2138 9.5862 15.4483C9.5862 15.8138 9.41379 16.1034 9.11724 16.2483C8.80689 16.3931 8.44827 16.3379 8.20689 16.1034C8.06207 15.9655 7.95862 15.931 7.64827 15.931H7.27586L6.66896 15.3241L6.06896 14.7241V13.8965L6.06207 13.069L5.86207 13.3103L5.65517 13.5448V14.5172V15.4827L6.95862 16.7862L8.26207 18.0827L8.51034 18C9.26896 17.7517 9.92413 18.6896 9.41379 19.2965C8.91724 19.8896 8.04138 19.6483 7.95172 18.8828C7.91724 18.6069 7.83448 18.5034 6.51034 17.1724L5.11034 15.7586L5.08965 15.069L5.06896 14.3793L4.6 15.1034L4.13793 15.8276V16.4138V17.0069L4.62069 17.4827C5.04827 17.9103 5.13103 17.9586 5.3931 17.9724C5.9931 18.0069 6.33793 18.7103 6.02069 19.2483C5.90345 19.4483 5.55862 19.6552 5.35172 19.6552C4.77931 19.6552 4.30345 18.9448 4.55862 18.469C4.62069 18.3517 4.56552 18.2621 4.06896 17.7517C3.65517 17.331 3.51034 17.1379 3.54483 17.0552C3.57931 16.9517 3.56552 16.9586 3.47586 17.069C3.35862 17.2138 2.55172 18.8552 2.55172 18.9517C2.55172 18.9793 2.91724 19.3655 3.36552 19.8138L4.17931 20.6276L5.55862 20.5931C6.31034 20.5724 7.09655 20.5448 7.29655 20.5379C7.63448 20.5172 7.68276 20.5379 7.86896 20.7448C8.03448 20.931 8.06896 21.0276 8.06896 21.3172C8.06896 21.6069 8.03448 21.6965 7.86896 21.8621C7.75862 21.9724 7.5931 22.0827 7.48965 22.1103C7.22758 22.1724 6.86896 22.0896 6.72413 21.931C6.60689 21.8 6.51034 21.7931 5.13793 21.7931H3.68276L2.86207 20.9655C2.41379 20.5103 2.04138 20.1448 2.03448 20.1517C1.90345 20.3448 0.965516 23.3655 0.965516 23.6C0.965516 23.7172 1.04827 23.7241 2.36552 23.7241H3.75862L4.33793 24.3034L4.91724 24.8828L5.1862 24.7448C5.52414 24.5655 5.84827 24.6207 6.13103 24.8965C6.7931 25.5586 6.06207 26.6414 5.22069 26.2414C4.91034 26.0965 4.74483 25.8414 4.73103 25.5034C4.72414 25.2621 4.66896 25.1793 4.13103 24.6483L3.53103 24.069L2.2 24.0827L0.862068 24.1034L0.786206 24.3448C0.710344 24.5724 0.406896 26.2345 0.310344 26.8965L0.268965 27.2069L0.889654 26.5931L1.50345 25.9862L1.46896 25.5862C1.44138 25.2827 1.46207 25.1517 1.55172 25.0069C1.81379 24.6138 2.30345 24.5103 2.69655 24.7793C3.47586 25.3034 3.07586 26.3517 2.13103 26.2621L1.8069 26.2276L0.999999 27.0345L0.199999 27.8345L0.131034 28.5448C0.0896547 28.9379 0.0758616 29.2759 0.103448 29.2965C0.131034 29.3241 0.544827 28.931 1.02759 28.4276L1.90345 27.5172H2.6069H3.31034V29.3931V31.269L3.06896 31.5172C2.84827 31.7448 2.82758 31.7931 2.89655 31.9586C3 32.2414 2.97931 32.4965 2.83448 32.7172C2.65517 32.9931 2.44138 33.0965 2.07586 33.1034C1.82759 33.1034 1.73793 33.0621 1.54483 32.869C1.34483 32.669 1.31034 32.5862 1.31034 32.3172C1.31034 31.7379 1.69655 31.4 2.26207 31.4759C2.53103 31.5103 2.58621 31.4965 2.76552 31.3172L2.96552 31.1172V29.5241V27.931H2.51034H2.04827L1.06896 28.8759C0.310344 29.6138 0.0758616 29.8828 0.0344823 30.069C-0.0344832 30.3724 0.0413788 34.1034 0.117241 34.2414C0.165517 34.3241 0.255172 34.269 0.551723 33.9655L0.924137 33.5862H2.27586H3.62069L4.22758 32.9793C4.67586 32.5241 4.82758 32.331 4.82758 32.1931C4.82758 31.9448 5.13103 31.6069 5.44138 31.5103C5.93103 31.3655 6.48276 31.7862 6.48276 32.3103C6.48276 32.6138 6.24138 32.9586 5.94483 33.0828C5.71034 33.1793 5.66207 33.1793 5.37931 33.0828L5.06896 32.9724L4.44827 33.5862L3.82758 34.2069H2.47586H1.13103L0.910344 34.4345L0.689654 34.6621V36.669C0.689654 38.4138 0.710344 38.7655 0.827585 39.3517C1.04138 40.3793 1.0069 40.331 1.31724 40.0276C1.62069 39.731 1.64827 39.5862 1.44827 39.331C1.17931 38.9931 1.32414 38.3793 1.72414 38.1724C1.98621 38.0414 2.41379 38.0414 2.6069 38.1793C2.81379 38.3241 2.96552 38.6345 2.96552 38.9241C2.96552 39.2069 2.64827 39.6138 2.37931 39.6828C2.27586 39.7103 2.2069 39.7793 2.2069 39.8483C2.2069 39.9172 1.97931 40.2 1.69655 40.4759C1.41379 40.7586 1.1931 41.0207 1.2069 41.0621C1.22069 41.1034 1.28276 41.3172 1.34483 41.5448C1.45517 41.931 1.46207 41.9448 1.55862 41.8C1.8069 41.4483 2.29655 41.3586 2.67586 41.5862C3.17241 41.8896 3.2 42.5448 2.74483 42.931C2.55172 43.0965 2.47586 43.1172 2.15862 43.0896C1.95862 43.069 1.7931 43.0759 1.7931 43.0965C1.7931 43.1172 1.82759 43.2552 1.86896 43.3931L1.93793 43.6552H2.43448H2.93793L3.26207 43.3241L3.58621 42.9931V40.1655V37.3379L3.09655 36.8414L2.6069 36.3448L2.28276 36.3862C1.68965 36.4621 1.31034 36.1448 1.31034 35.5724C1.31034 35.0965 1.56552 34.8207 2.04827 34.7793C2.37241 34.7448 2.42069 34.7586 2.65517 34.9793C2.87586 35.1793 2.91724 35.269 2.94483 35.5655C2.97931 35.8965 3.01379 35.9448 3.55862 36.4897L4.13793 37.069V40.1724V43.2828L3.66896 43.7448L3.2 44.2069H2.66896C2.37931 44.2069 2.13793 44.2345 2.13793 44.2759C2.13793 44.4207 2.30345 44.6896 2.3931 44.6896C2.58621 44.6896 2.89655 44.9034 3 45.1034C3.14483 45.3793 3.13103 45.7172 2.96552 45.9862L2.82069 46.2138L2.97241 46.6276L3.12414 47.0345H3.57931H4.03448L4.5931 47.5931C5.08965 48.0896 5.17241 48.1448 5.29655 48.0759C5.84138 47.7862 6.57241 48.3724 6.44827 49.0069C6.34482 49.5793 5.55862 49.8552 5.11034 49.4828C4.84827 49.2552 4.72414 48.8965 4.81379 48.6276C4.87586 48.4414 4.85517 48.4 4.3862 47.9379C3.93103 47.4828 3.86896 47.4483 3.6 47.4483C3.44138 47.4483 3.31034 47.4759 3.31034 47.5103C3.31034 47.6552 4.35862 49.6207 4.88276 50.4621C5.36551 51.2345 5.48276 51.3793 5.68965 51.4483C6.04827 51.5655 6.27586 51.8759 6.27586 52.2483C6.27586 52.5034 6.33103 52.6345 6.56551 52.9724L6.85517 53.3793L7.15172 53.0896L7.44827 52.8V52.1034V51.4L7.1931 51.2345C6.48965 50.7862 6.8 49.7241 7.62758 49.7241C7.88276 49.7241 7.97931 49.7655 8.1931 49.9586C8.41379 50.1655 8.44827 50.2345 8.44827 50.5034C8.44827 50.8552 8.27586 51.1517 7.97931 51.2965C7.7931 51.3862 7.7931 51.3931 7.7931 52.1586V52.9379L7.44827 53.3034C7.26207 53.5034 7.10345 53.6896 7.10345 53.7172C7.11034 53.7379 7.30345 54.0345 7.54483 54.3793L7.97931 55L13.7655 55.0207L19.5517 55.0345L20.1172 55.6L20.6896 56.1724V59.5103V62.8483L20.8621 63.1517L21.0414 63.4483H34.2965H47.5586L47.9655 63.8621L48.3724 64.2759H51.3793H54.3793L55.3655 63.2896L56.3448 62.3103V61.2414V60.1724L57.531 58.9793L58.7241 57.7931H61.5517H64.3793L65 58.4138L65.6207 59.0345H66.8758H68.1379L68.6 59.5172L69.062 60H70.0345H71L71.5517 60.5517C72 61 72.1241 61.0896 72.2551 61.0621C72.6414 60.9586 73.1241 61.2896 73.2483 61.7379C73.3103 61.9724 73.2965 62.0759 73.2069 62.3241C72.9241 63.069 71.8965 63.0965 71.5586 62.3793C71.4414 62.131 71.4414 62.0276 71.5586 61.5172C71.5931 61.3655 71.531 61.2759 71.1793 60.9448L70.7655 60.5517H69.8138H68.8689L68.4069 60.0965L67.9517 59.6414L66.6896 59.6552L65.4345 59.6621L64.7655 59L64.0965 58.3448H61.5103H58.931L57.9448 59.331L56.9655 60.3103V61.4138V62.5172L55.7724 63.7103L54.5862 64.8965H51.3793H48.1655L47.7586 64.4828L47.3517 64.069H34.0345H20.7172L20.4276 63.5586L20.1379 63.0483V59.7103V56.3724L19.7724 56.0138L19.4069 55.6552H13.9172H8.42069L8.86207 56.3448L9.29655 57.0414L13.7655 57.0345H18.2345L18.6345 57.4276L19.0345 57.8207V60.7241V63.6207L19.9517 64.5379L20.8621 65.4483H34.0138H47.1586L47.6414 65.7241L48.1172 66H51.5586H55L56.5034 64.4965L58 63V61.9655V60.931L58.9862 59.9448L59.9655 58.9655H62.1724H64.3793L64.9655 59.5517L65.5517 60.1379H66.5862H67.6207L68.1655 60.6828C68.6827 61.2 68.7172 61.2276 68.9655 61.1931C69.8276 61.0759 70.2896 62.2 69.6276 62.8069C68.9586 63.4207 67.9448 62.7448 68.1862 61.8483L68.2689 61.5517L67.8758 61.1586L67.4896 60.7586H66.4276H65.3586L64.7655 60.1724L64.1655 59.5862H62.1793H60.1931L59.3724 60.3517L58.5517 61.1241V62.2V63.2759L56.9103 64.9172L55.2758 66.5517H51.5862H47.8965L47.4207 66.2759L46.9517 66H33.7655H20.5862L19.4965 64.9103L18.4138 63.8276V60.9241V58.0276L18.1862 57.8069L17.9655 57.5931L13.8965 57.5862C11.6552 57.5862 9.7931 57.6069 9.75172 57.6414C9.69655 57.6759 9.77241 57.869 9.97931 58.2414C10.3862 58.9586 10.9241 60.1379 11.2207 60.9655C11.3517 61.3241 11.469 61.6345 11.4897 61.6483C11.5034 61.6621 11.5793 61.6207 11.6621 61.5448C11.7724 61.4483 11.9103 61.4138 12.2414 61.4138C12.6138 61.4138 12.7034 61.4414 12.8621 61.5862C13.1586 61.8621 13.2621 62.1172 13.2207 62.5103C13.1931 62.8 13.1517 62.8896 12.9103 63.1172C12.6483 63.3586 12.5931 63.3793 12.2276 63.3793H11.8276L11.8483 64.3448L11.869 65.3103H14.7793H17.6896L18.6552 66.2759L19.6207 67.2414H32.3103H45L45.7103 67.6552L46.4276 68.069H49.6276H52.8276V70.5517V73.0345H47.3793H41.931L41.5862 72.8207L41.2414 72.6138L41.2276 71.1517L41.2069 69.6896L37.5034 69.669L33.7931 69.6552V71.3448V73.0345H31.3241H28.8621L27.6207 71.7931L26.3793 70.5517H19.1724H11.9586L11.7034 70.8138C11.4965 71.0276 11.4345 71.1448 11.4 71.4414L11.3586 71.8L11.6 71.5586C11.9034 71.2552 12.2414 71.1862 12.6552 71.3448C13.4552 71.6483 13.531 72.7172 12.7862 73.1586C12.3034 73.4414 11.7241 73.2828 11.4276 72.7724L11.2759 72.5172L11.1931 73.1379C11.1448 73.4828 11.0138 74.4483 10.8897 75.2965L10.6759 76.8276L10.8897 77.0276C11.269 77.3793 11.3448 77.8345 11.0965 78.2759C11.0207 78.4138 10.8621 78.5862 10.7517 78.6483L10.5517 78.7655V80.4345V82.0965L10.0965 82.5586C9.66207 83 9.64138 83.0345 9.54482 83.5241C9.49655 83.8069 9.43448 84.0965 9.41379 84.1793C9.3862 84.3103 9.50344 84.3862 10.4276 84.8207L11.469 85.3241L11.6345 85.1103C11.8552 84.8276 12.1379 84.6896 12.4828 84.6896C12.8414 84.6896 13.1172 84.8345 13.3241 85.1172C13.4483 85.3034 13.4828 85.4276 13.4759 85.7655C13.4621 86.1655 13.4759 86.1862 13.6621 86.2552L13.8621 86.331V85.1793V84.0276L13.3793 83.5517L12.8897 83.069L12.5241 83.0896C12.0897 83.1172 11.8069 83 11.5862 82.6896C11.2897 82.2759 11.3448 81.7103 11.7103 81.3655C12.2276 80.8759 13.0759 81.0483 13.3517 81.7034C13.4828 82.0069 13.4759 82.2345 13.3172 82.5448L13.1793 82.8069L13.7241 83.3448L14.2759 83.8896L14.2896 85.1931L14.3103 86.4965L14.5379 86.5862L14.7586 86.6828V84.1517V81.6207L13.8759 80.7379C13.0276 79.8896 12.9862 79.8552 12.8 79.931C12.1586 80.1724 11.4414 79.6965 11.4345 79.0207C11.4207 78.2 12.2897 77.7034 12.9862 78.1241C13.3931 78.3793 13.5655 78.9724 13.3655 79.4138C13.2897 79.5862 13.3172 79.6276 14.2276 80.5379L15.1724 81.4828V84.1586V86.8345L15.331 86.8896C15.4138 86.9241 15.5034 86.9379 15.531 86.9172C15.5655 86.9034 15.5862 86.1862 15.5862 85.3241V83.7586L16.4965 82.8483L17.4138 81.931H17.8C18.1655 81.931 18.2138 81.9103 18.4621 81.6621C18.8 81.3172 19.1241 81.2483 19.5517 81.4138C20.3517 81.7172 20.4276 82.7931 19.6828 83.2207C19.5379 83.3103 19.331 83.3793 19.2276 83.3793C18.7793 83.3793 18.3172 83.0345 18.2 82.6069C18.1379 82.3586 18.1172 82.3448 17.8414 82.3448C17.5586 82.3448 17.5172 82.3793 16.7379 83.1586L15.931 83.9655V85.5379V87.1034L16.1103 87.1724C16.2069 87.2138 16.3172 87.2414 16.3517 87.2414C16.3862 87.2414 16.4138 86.8345 16.4138 86.2965V85.3448L17.2207 84.5379L18.0345 83.7241H19.3448H20.6621L21.0965 83.2828C21.5241 82.8552 21.531 82.8414 21.4621 82.6C21.3586 82.2345 21.469 81.869 21.7517 81.6069C22.0621 81.3241 22.3931 81.2552 22.7931 81.4138C23.1793 81.5586 23.3931 81.8483 23.4276 82.269C23.4621 82.6828 23.2896 83.0207 22.931 83.2207C22.6069 83.4069 22.3655 83.4207 22.0207 83.2759L21.7655 83.1655L21.2759 83.6552L20.7931 84.1379H19.4759H18.1655L17.4965 84.8069L16.8276 85.4828V86.4621C16.8276 87.4 16.8345 87.4483 16.9655 87.4483C17.0414 87.4483 17.1034 87.4069 17.1034 87.3586C17.1034 87.3103 17.3655 87.0138 17.6828 86.6965C18.2552 86.1241 18.2621 86.1172 18.1931 85.8759C18.0552 85.3724 18.4759 84.7517 19.0207 84.6552C19.3724 84.6 19.8138 84.7793 20.0138 85.0483C20.3241 85.4896 20.2138 86.1862 19.7862 86.5034C19.5034 86.7034 19.0207 86.7379 18.7379 86.5655L18.4965 86.4276L17.9586 86.9724C17.6207 87.3103 17.4414 87.5379 17.4828 87.5793C17.5241 87.6138 17.7931 87.7172 18.0965 87.8138C18.531 87.9448 18.6828 87.9655 18.8621 87.9103C19.1655 87.8207 19.5379 87.8965 19.7862 88.1034C19.9379 88.2414 20.0621 88.2759 20.3379 88.2759H20.6896V87.6414V87.0069L21.1034 86.5862C21.5034 86.1793 21.5103 86.1655 21.4552 85.9103C21.3724 85.5517 21.4827 85.1862 21.7655 84.9241C22.4069 84.3172 23.4483 84.7931 23.4483 85.6965C23.4483 86.4138 22.6276 86.9103 21.9862 86.5793L21.7724 86.469L21.4069 86.8345L21.0345 87.2V87.7379V88.2759H21.4H21.7586L22.8138 87.2207L23.8621 86.1724V84.9517V83.7379L24.331 83.2828L24.8069 82.8276L24.7724 82.4552C24.7241 81.8552 25.069 81.4069 25.6483 81.331C25.9862 81.2828 26.4414 81.5103 26.6207 81.8138C26.9241 82.3034 26.7241 83 26.2069 83.2552C25.8896 83.4138 25.6069 83.4138 25.2759 83.2414L25 83.1034L24.6345 83.469L24.2621 83.8414L24.2759 85.069L24.2827 86.3034L23.2965 87.2896L22.3103 88.2759H22.8621H23.4138L24.2896 87.4L25.1724 86.5241L24.9862 86.331C24.731 86.0621 24.6827 85.4483 24.8965 85.1172C25.0414 84.8896 25.4965 84.6207 25.7586 84.6207C26.0207 84.6207 26.4759 84.8828 26.6207 85.1172C27.0138 85.7655 26.531 86.6896 25.7931 86.6896C25.5724 86.6896 25.469 86.7724 24.7586 87.4828L23.9655 88.2759H24.469C24.8827 88.2759 25.0069 88.2483 25.1793 88.1172C25.4759 87.9034 26.0414 87.9034 26.3379 88.1172C26.5103 88.2483 26.6345 88.2759 27.0345 88.2759H27.5172L27.5241 82.3586C27.5241 79.1103 27.5379 76.3862 27.5517 76.3172C27.5655 76.2414 28.0827 75.6759 28.7034 75.0552L29.8276 73.931H32.4483H35.0758L35.4483 74.3103L35.8207 74.6896H44.2414H52.6552L53.6758 73.669C54.6414 72.7034 54.6896 72.6414 54.6896 72.3793C54.6896 72.0414 54.8896 71.7034 55.1862 71.5103C55.3655 71.4 55.4965 71.3793 55.7862 71.4C56.1172 71.4207 56.1862 71.4552 56.4276 71.7103C56.662 71.9655 56.6896 72.0345 56.6896 72.3517C56.6896 73 56.2827 73.4069 55.6483 73.3931L55.3379 73.3862L54.2 74.5241L53.0689 75.6552H44.2414H35.4069L35.0414 75.2759L34.6758 74.8965H32.4552H30.2414L29.3586 75.7793L28.4827 76.6552V82.469V88.2759H28.7241H28.9655V82.7379V77.2069L29.8138 76.3586L30.6552 75.5172H32.7241H34.7931L35.5724 76.2965L36.3448 77.069V77.4621C36.3448 77.8552 36.3448 77.8621 36.6276 78C36.8345 78.1103 36.9448 78.2276 37.0483 78.4621C37.2345 78.8828 37.1724 79.1862 36.8276 79.531C36.6 79.7655 36.531 79.7931 36.2345 79.7931C35.5862 79.7931 35.2 79.3724 35.2552 78.7448C35.2965 78.3724 35.5517 78.0276 35.8414 77.9586C35.9793 77.9241 36 77.869 36 77.5931C36 77.2828 35.9862 77.2621 35.3241 76.6L34.6552 75.931H32.6965H30.7379L30.0276 76.6414L29.3103 77.3517V82.8138V88.2759H29.6896H30.069V82.8483V77.4207L30.4621 77.0207L30.8552 76.6207H32.4483C33.3172 76.6207 34.1724 76.6552 34.3448 76.6965C35.1172 76.8759 35.4 77.7586 34.8552 78.3034C34.331 78.8207 33.4414 78.5724 33.2621 77.8621L33.2 77.6207L32.2414 77.6C31.4276 77.5862 31.2759 77.6 31.1655 77.6965C31.0414 77.8069 31.0345 78.0345 31.0345 83.0483V88.2759H31.3793C31.6276 88.2759 31.7862 88.2276 31.9724 88.1034C32.1448 87.9862 32.3172 87.931 32.5172 87.931C32.7172 87.931 32.8896 87.9862 33.0621 88.1034C33.2276 88.2138 33.4138 88.2759 33.5862 88.2759H33.8621V87.8483V87.4207L33.4069 86.9586C32.9724 86.5241 32.9379 86.5034 32.731 86.5586C32.4069 86.6552 32.0827 86.5586 31.8276 86.3034C31.4138 85.8896 31.4414 85.3034 31.9034 84.8965C32.0965 84.731 32.2069 84.6896 32.469 84.6896C33.2138 84.6896 33.6827 85.4138 33.3517 86.0621C33.2483 86.2483 33.2552 86.2552 33.7655 86.7655L34.2758 87.269V87.7724V88.2759H34.6207C34.8138 88.2759 34.9655 88.2483 34.9655 88.2207C34.9655 88.0965 35.3862 87.931 35.7103 87.931C35.9793 87.931 36.1034 87.9724 36.2621 88.1034C36.4276 88.2414 36.5448 88.2759 36.8552 88.2759H37.2414V87.7034V87.131L36.8 86.6965L36.3586 86.2552L36.1655 86.4069C35.9241 86.6 35.4414 86.6 35.1379 86.4138C34.6965 86.1448 34.5655 85.5241 34.8483 85.0965C35.0552 84.7862 35.4138 84.6069 35.7448 84.6483C36.2621 84.7103 36.5793 85.0621 36.5931 85.6069C36.6069 85.931 36.6276 85.9724 37.0965 86.4414L37.5862 86.931V87.6069V88.2759H38.0276C38.3586 88.2759 38.5379 88.2345 38.7241 88.131C39.0138 87.9586 39.5724 87.9724 39.7793 88.1655C39.8552 88.2276 40.0207 88.2759 40.1793 88.2759H40.4483L38.3103 86.1379L36.1724 84H35.0345H33.9034L33.4758 83.5793L33.0552 83.1586L32.7655 83.2483C32.1655 83.4276 31.5931 83.0414 31.531 82.4207C31.4207 81.269 33.0621 80.9724 33.3931 82.0828C33.4483 82.2828 33.4483 82.4138 33.3931 82.6069C33.3103 82.8621 33.3172 82.8621 33.7034 83.2552L34.0965 83.6552H35.2414H36.3793L38.6896 85.9655C40.6138 87.8965 41.0276 88.2759 41.1862 88.2759C41.3517 88.2759 41.3793 88.2483 41.3793 88.0828C41.3793 87.931 40.9862 87.4965 39.0483 85.5655L36.7172 83.2414L36.0207 83.2483C35.2896 83.2552 35.1655 83.2207 34.9034 82.9448C34.7103 82.731 34.6345 82.2276 34.7586 81.931C34.9103 81.5655 35.2 81.3793 35.6207 81.3793C35.9379 81.3793 36.0345 81.4138 36.2345 81.5862C36.5931 81.9034 36.6827 82.269 36.5103 82.7172C36.4758 82.8 36.5103 82.8276 36.6621 82.8276C36.8345 82.8276 37.2345 83.2 39.331 85.2965C41.6896 87.6552 41.7931 87.7724 41.7931 88.0207C41.7931 88.2552 41.8069 88.2759 42 88.2759C42.2069 88.2759 42.2069 88.2759 42.2069 87.8759V87.4828L39.6896 84.9655L37.1724 82.4483V82.069C37.1724 81.6896 37.1655 81.6828 36.7379 81.2552L36.3034 80.8276H34.9034H33.4965L33.1448 80.4759C32.8069 80.1379 32.7793 80.1241 32.4 80.1103C32.0414 80.1034 31.9793 80.0828 31.7448 79.8414C31.5034 79.6 31.4827 79.5586 31.4827 79.1724C31.4827 78.7931 31.5034 78.7448 31.731 78.5103C32.5034 77.7379 33.7517 78.6483 33.2483 79.6207L33.1034 79.8896L33.3931 80.1862L33.6827 80.4828H35.1034H36.5241L37.0276 80.9931C37.5379 81.5034 37.5379 81.5034 37.5379 81.8828L37.531 82.2552L40.0414 84.7655L42.5517 87.2759V87.7724V88.2759H42.7586H42.9655V87.7379V87.2069L41.0345 85.2759C39.9724 84.2138 39.1034 83.3103 39.1034 83.2621C39.1034 83.2138 39.0276 83.1586 38.931 83.131C38.7241 83.0828 38.3655 82.6828 38.3034 82.4483C38.0896 81.5931 39.131 80.9172 39.8207 81.4552C40.3655 81.8828 40.3103 82.7862 39.7241 83.0483C39.6069 83.0965 39.5172 83.1517 39.5172 83.1724C39.5172 83.1931 40.3724 84.0621 41.4138 85.1034L43.3103 87V87.6345V88.2759H43.5172H43.7241V87.669V87.069L42.2069 85.5517L40.6896 84.0345V82.3448V80.6483L40.2069 80.1724C39.7586 79.7241 39.7172 79.7034 39.5517 79.7793C39.4552 79.8276 39.2345 79.8621 39.069 79.8621C38.4965 79.8621 38.0483 79.2483 38.2069 78.6896C38.4276 77.931 39.3379 77.7241 39.8621 78.3241C40.0758 78.5655 40.0827 78.6 40.0483 79.0069L40.0138 79.4345L40.5241 79.9379L41.0345 80.4414V82.1379V83.8276L42.5517 85.3448L44.069 86.8621V87.5655V88.2759H44.5379C44.8689 88.2759 45.0827 88.2345 45.2758 88.1379C45.6138 87.9655 45.8345 87.9655 46.1724 88.1379C46.4896 88.2965 47.1724 88.331 47.1724 88.1862C47.1724 88.1379 47.0069 87.9379 46.8069 87.7379L46.4414 87.3793H45.9655H45.4896L43.8483 85.7448L42.2069 84.1103V83.6069C42.2069 83.1862 42.1862 83.1034 42.0827 83.0759C41.6414 82.931 41.3862 82.2414 41.6138 81.8C41.9862 81.0828 43.0896 81.2 43.3034 81.9793C43.4207 82.3862 43.2 82.8828 42.8345 83.0345C42.6276 83.1172 42.6207 83.1379 42.6207 83.5448V83.9655L44.1241 85.469L45.6207 86.9655H46.1034H46.5931L47.0896 87.469C47.4069 87.7862 47.5862 88.0207 47.5862 88.1241C47.5862 88.2483 47.6276 88.2759 47.7931 88.2759C47.9793 88.2759 48 88.2552 48 88.0483C48 87.8483 47.8069 87.6345 46.069 85.8965L44.1379 83.9655V82.4483V80.931L43.5379 80.331L42.931 79.731L42.6552 79.8069C42.2345 79.9172 41.8758 79.8276 41.5793 79.5241C41.131 79.0759 41.131 78.4414 41.5793 77.9931C41.9931 77.5793 42.6069 77.5448 43.0414 77.9103C43.4345 78.2483 43.5448 78.7241 43.3379 79.2345L43.2276 79.5103L43.8552 80.1103L44.4827 80.7034V82.2345V83.7586L46.4138 85.6896L48.3448 87.6207V87.9448V88.2759H48.5862H48.8276V87.4965C48.8276 86.7379 48.8207 86.7103 48.6621 86.6345C48.4 86.5172 48.1241 86.1034 48.0896 85.7655C48.0414 85.3862 48.2069 85.0207 48.5379 84.7724C48.8621 84.531 49.4689 84.5103 49.7724 84.731C50.4138 85.2069 50.4552 86.0069 49.8689 86.5034C49.7517 86.6 49.5655 86.6965 49.4483 86.7241L49.2414 86.7724V87.5241V88.2759H49.7517C50.0345 88.2759 50.3103 88.2552 50.3724 88.2345C50.4689 88.2 50.4827 87.9862 50.4827 86.5586V84.931L50.0414 84.4621L49.5931 84H48.7103H47.8276L46.7034 82.8759L45.5862 81.7586V80.8483V79.931L45.3586 79.8345C44.6483 79.5379 44.4758 78.6138 45.0276 78.0621C45.8 77.2828 47.0689 77.9793 46.8689 79.069C46.8138 79.3655 46.5241 79.7172 46.2276 79.8345L46 79.931V80.8207V81.7034L46.9931 82.6759L47.9931 83.6552H48.8758H49.7586L50.331 84.2276L50.8965 84.7931V86.4345C50.8965 87.331 50.9034 88.069 50.9172 88.069C51.0069 88.069 51.7034 87.8414 51.7448 87.7931C51.7793 87.7655 51.8414 87.4965 51.8896 87.2L51.9793 86.6552L51.7448 86.4069C51.5103 86.1586 51.5034 86.1517 51.5103 85.5103V84.8621L50.6069 83.9517C49.8069 83.1517 49.6827 83.0483 49.5655 83.1172C49.3172 83.2483 48.7793 83.2 48.5172 83.0276C48.2483 82.8414 48 82.4069 48 82.1034C48 81.8 48.2621 81.331 48.5103 81.1724C48.8483 80.9724 49.4069 80.9793 49.731 81.2C50.1655 81.4965 50.3379 82.131 50.1034 82.5793L49.9931 82.7862L50.931 83.7241L51.862 84.6552V85.3172C51.862 85.8 51.8896 86.0069 51.9586 86.0621C52.1034 86.1793 52.2758 85.1241 52.2758 84.1379V83.3448L51.9862 83.2069C51.2414 82.8552 51.2207 81.7793 51.9448 81.4069C52.1448 81.3034 52.6276 81.2965 52.9586 81.3862C53.0207 81.4069 53.0827 81.331 53.1241 81.1862C53.1793 81.0069 53.1724 80.9379 53.0689 80.8276C52.9517 80.7034 52.8552 80.6896 51.7655 80.6896H50.5931L50.1655 80.269C49.7793 79.8828 49.731 79.8552 49.5862 79.931C49.3586 80.0552 48.7517 79.9862 48.5034 79.8069C47.8827 79.3655 47.9586 78.3103 48.6414 77.9517C48.9517 77.7931 49.4552 77.8138 49.7517 77.9931C50.0138 78.1586 50.2758 78.6207 50.2758 78.9172C50.2758 79.0207 50.2276 79.2207 50.1724 79.3586L50.062 79.6138L50.3931 79.9448L50.7172 80.2759H51.8896C52.8827 80.2759 53.0758 80.2965 53.1862 80.3931C53.2552 80.4552 53.3241 80.4896 53.331 80.4759C53.3448 80.4621 53.4414 80.2 53.5448 79.8965C53.8896 78.9172 54.2414 78.2276 54.8 77.469L54.9103 77.3103H54.4758H54.0345L53.6069 77.731C53.1793 78.1448 53.1793 78.1517 53.2896 78.3241C53.4345 78.5448 53.4345 79.0069 53.2896 79.2896C53.0276 79.7931 52.2207 79.9724 51.7931 79.6138C51.2138 79.1172 51.2483 78.3241 51.8758 77.9241C52.062 77.8069 52.1793 77.7931 52.5241 77.8207L52.9448 77.8552L53.4207 77.3724L53.8896 76.8965H55.1103C56.2345 76.8965 56.331 76.9034 56.4483 77.0345C56.5448 77.1379 56.6621 77.1724 56.9241 77.1724H57.2758L57.2345 75.9172C57.2069 75.2207 57.1655 72.8069 57.1379 70.5517L57.0896 66.4483L58.4069 65.1379L59.7241 63.8276V62.6896V61.5517L60.4 60.8759L61.0689 60.2069H62.7241H64.3862L64.8896 60.7172C65.3655 61.2 65.4069 61.2276 65.6483 61.1931C66.4345 61.0896 66.9793 61.9655 66.531 62.6276C66.0138 63.4 64.8965 63.0276 64.8965 62.0896C64.8965 61.9448 64.9448 61.7517 65.0069 61.6621C65.1172 61.5103 65.1103 61.4965 64.6827 61.0621L64.2483 60.6207H62.7241H61.2069L60.6345 61.1931L60.0689 61.7586V62.8965V64.0345L58.7655 65.3448L57.4621 66.6552L57.531 71.7586C57.6069 76.7379 57.6069 76.869 57.7448 77.0207C57.8414 77.1241 57.9655 77.1724 58.1241 77.1724H58.3655L58.2207 77.0138L58.0689 76.8552V71.7862V66.7241L59.3448 65.4483L60.6207 64.1724V63.069V61.9586L61.0552 61.531L61.4896 61.1034H62.4276H63.3655L63.862 61.3862L64.3517 61.669L64.3379 62.2207C64.3241 62.731 64.3379 62.7724 64.5172 62.9655L64.7172 63.1724H68.8551L73 63.1655L73.2483 62.8069C73.3862 62.6069 73.7655 62.1517 74.0827 61.7931C74.4069 61.4276 74.7034 61.069 74.7448 60.9862C74.8896 60.7172 74.8414 60.3241 74.6207 59.9793L74.4138 59.6552H72.2551H70.1034L69.5517 59.1034L69 58.5517H67.5517H66.1034L64.9103 57.3586L63.7241 56.1724V55.5172V54.8621L62.931 54.069L62.1379 53.2759V49.8552V46.4276L61.862 46.1517C61.6138 45.9103 61.5862 45.8414 61.5862 45.5448C61.5862 44.7724 62.2483 44.331 62.8896 44.6759C63.2138 44.8483 63.3931 45.2 63.3586 45.5655C63.3172 45.9586 63.1448 46.2 62.8207 46.3379L62.5517 46.4483V49.7931V53.1379L63.3448 53.931L64.1379 54.7241V55.3793V56.0345L65.1931 57.0896L66.2551 58.1517L67.6965 58.1379L69.1379 58.131L69.662 58.6896L70.1931 59.2414H72.1103H74.0276L73.7931 59L73.5586 58.7586H72.0689H70.5862L69.9655 58.1379L69.3448 57.5172H68.2414H67.1379L66.6138 56.9931L66.0896 56.469L65.8069 56.5517C65.5655 56.6276 65.4965 56.6207 65.2689 56.5103C64.4552 56.1103 64.5379 54.9862 65.3862 54.7586C65.9655 54.6 66.4827 55.0483 66.4827 55.6965C66.4827 56.0276 66.4965 56.0552 66.9517 56.5034L67.4207 56.9655H68.5172H69.6207L70.2069 57.5517L70.7931 58.1379H72.0069C73.1379 58.1379 73.2276 58.131 73.262 58.0069C73.2758 57.9379 73.4551 57.7517 73.6552 57.5931L74.0138 57.3103H72.6827H71.3448L70.6483 56.6138C69.9793 55.9448 69.9448 55.9172 69.862 56.0621C69.8207 56.1448 69.6827 56.2759 69.5655 56.3448C68.8069 56.8138 67.8965 55.9103 68.3103 55.1034C68.4827 54.7724 68.7379 54.6207 69.1241 54.6207H69.4758L70.5172 55.6552L71.5586 56.6896H73.1655C74.9586 56.6896 74.8207 56.7241 75.1034 56.1862L75.2414 55.931H74.2345C73.2414 55.931 73.2276 55.931 73.0896 56.1034C73.0138 56.2 72.862 56.3241 72.7586 56.3793C72.0069 56.7655 71.1586 55.8552 71.5724 55.1034C71.931 54.4483 72.8345 54.4483 73.1724 55.1034L73.3103 55.3793H74.3103C75.4551 55.3793 75.4414 55.3931 75.1655 54.7517L75.0207 54.4138H74.6C74.2965 54.4138 74.1448 54.3793 74.0483 54.2965C73.9241 54.1793 73.5862 54.1724 69.3862 54.1517L64.8621 54.1379L64.2965 53.5724L63.7241 53V46.8621V40.7172L63.2276 40.2276C62.8345 39.8483 62.662 39.731 62.4552 39.6896C61.8896 39.5931 61.6138 39.0345 61.862 38.5103C62.1172 37.9862 62.7586 37.8759 63.1724 38.2896C63.4345 38.5448 63.4965 38.8828 63.3517 39.1793L63.2345 39.4069L63.7931 39.9655L64.3448 40.5172V46.6896V52.869L64.7517 53.2276L65.1655 53.5862H69.5793C73.9517 53.5862 73.9931 53.5862 74.2414 53.731C74.3793 53.8138 74.5034 53.869 74.5172 53.8483C74.531 53.8345 74.4482 53.6759 74.3241 53.4965C74.1103 53.1862 74.0896 53.1793 73.7517 53.1724C73.4689 53.1724 73.3724 53.1379 73.2414 53L73.0758 52.8276L72.931 52.9655C72.5655 53.3034 71.9448 53.269 71.6276 52.8965C71.0276 52.1793 71.7172 51.0896 72.5862 51.3793C72.8483 51.4621 73.1724 51.8069 73.1724 51.9931C73.1724 52.1517 73.6896 52.6483 73.7862 52.5862C73.9586 52.4828 73.5586 51.1931 73.262 50.8828C73.0827 50.6965 73.0483 50.6896 72.4138 50.6896H71.7586L70.7586 51.6896C70.2069 52.2414 69.7241 52.6896 69.6827 52.6896C69.6345 52.6896 69.5793 52.7379 69.5586 52.8C69.5379 52.8552 69.3793 52.9655 69.2069 53.0414C68.8207 53.2138 68.4414 53.1379 68.1793 52.8276C67.6207 52.1586 68.1793 51.1241 69.0069 51.2828C69.2483 51.3241 69.6 51.6 69.6689 51.7931C69.6965 51.869 69.9655 51.6414 70.6 51.0138L71.4827 50.1379H72.3586C73.2207 50.1379 73.2276 50.1379 73.2689 49.9724C73.2896 49.8828 73.331 49.7586 73.3517 49.6965C73.3862 49.6 73.2689 49.5862 72.262 49.5862H71.1379L70.5172 50.2069L69.8965 50.8276H68.6207H67.3379L66.8965 51.2759C66.4621 51.7103 66.4552 51.7241 66.4758 52.0621C66.5034 52.6207 66.2345 52.9724 65.7172 53.069C65.2345 53.1517 64.6896 52.6552 64.6896 52.1379C64.6896 51.8 64.931 51.4483 65.2689 51.2828C65.531 51.1517 65.5517 51.1517 65.8827 51.269L66.2276 51.3931L66.7172 50.9034L67.2069 50.4138H68.5172H69.8276L70.4138 49.8276L71 49.2414H72.3793C73.4689 49.2345 73.7862 49.2138 73.8896 49.1379C74.0207 49.0414 74.462 48.8828 74.8483 48.8C74.9793 48.7655 75.0345 48.7103 75.0345 48.6138C75.0345 48.4276 75.4414 48.0207 75.6827 47.9586C75.7931 47.931 75.9931 47.9448 76.131 47.9931L76.3793 48.069L78.1241 46.3241C79.0758 45.3724 79.862 44.5517 79.862 44.5034C79.862 44.4621 79.8276 44.3379 79.7931 44.2345L79.7172 44.0414L78.531 45.2276L77.3448 46.4138H76.6552H75.9655L74.9655 47.4138L73.9655 48.4138H71.9862H70V48.669C70 49.4069 69.1655 49.8207 68.5931 49.3724C68.0138 48.9172 68.1172 48.0965 68.7862 47.7655C69.0483 47.6345 69.0758 47.6345 69.3862 47.7448C69.6552 47.8414 70.0138 47.8621 71.6965 47.8621H73.6896L74.6896 46.8621L75.6896 45.8621H76.3793H77.0689L78.262 44.669L79.4551 43.469L79.3379 43.2207C79.2689 43.0828 79.2 42.9655 79.1793 42.9655C79.1517 42.9655 78.6552 43.4483 78.0689 44.0345L77 45.1034H76.1793H75.3517L74.2069 46.2414L73.062 47.3793H72.0276H70.9931L70.5862 46.9655L70.1793 46.5517H68.3862H66.5931L66.331 46.2965C66.0689 46.0414 66.0689 46.0414 65.8689 46.1586C65.2689 46.5103 64.4827 46.0483 64.4827 45.3448C64.4827 44.931 64.8758 44.4897 65.2896 44.4345C65.8345 44.3586 66.2758 44.7724 66.2758 45.3586C66.2758 45.6483 66.3103 45.7241 66.5034 45.9172L66.731 46.1379H68.5241H70.3172L70.7241 46.5517L71.131 46.9655H72.0689H73L74.1034 45.8621L75.2069 44.7586H76H76.7931L77.8896 43.6621L78.9793 42.5724L78.8689 42.3517C78.8069 42.2345 78.731 42.1379 78.7034 42.1379C78.6758 42.1379 78.1448 42.6483 77.5172 43.2759L76.3793 44.4138H74.931H73.4758L73.2483 44.6483L73.0207 44.8828L73.1586 45.0896C73.3724 45.3862 73.4138 45.7793 73.262 46.069C72.7655 47.0276 71.3724 46.6414 71.4689 45.5655C71.5103 45.069 71.931 44.6896 72.4276 44.6896C72.6138 44.6896 72.7241 44.6207 73 44.3448L73.3379 44H74.7931H76.2414L77.3724 42.869L78.4965 41.7448L78.3379 41.4965C78.2483 41.3586 78.1586 41.2414 78.1379 41.2414C78.1172 41.2414 77.5931 41.7517 76.9655 42.3793L75.8276 43.5172H74.0758H72.3172L71.3103 44.5172L70.2965 45.5172H69.2689H68.2414L67.0345 44.3034C66.3724 43.6414 65.7103 43.0345 65.5655 42.9586C65.2758 42.8069 65.0345 42.469 65.0345 42.2207C65.0345 41.9586 65.2414 41.5862 65.4552 41.4828C65.5586 41.4276 65.7724 41.3793 65.9241 41.3793C66.6 41.3793 66.9724 42.2552 66.5034 42.7724C66.3931 42.8965 66.4207 42.9379 67.3793 43.8965L68.3793 44.8965H69.2414H70.1034L71.0689 43.931L72.0345 42.9655H73.7931H75.5517L76.6758 41.8414L77.7931 40.7241L77.6069 40.4621L77.4207 40.2L76.3793 41.2414L75.331 42.2828L73.4827 42.2759L71.6345 42.269L70.731 43.1655L69.8276 44.069H68.9931H68.1655L67.6345 43.5655L67.1034 43.069V41.3724V39.6828L66.9034 39.4897L66.6965 39.2896L66.4827 39.4759C66.0827 39.8138 65.5793 39.8 65.2827 39.4483C64.9379 39.0345 64.9655 38.6207 65.3517 38.2828C65.5448 38.1103 65.6552 38.069 65.9034 38.069C66.1724 38.069 66.2551 38.1034 66.4552 38.3034C66.5862 38.4345 66.6896 38.5793 66.6896 38.6345C66.6896 38.6828 66.8758 38.9103 67.1034 39.1379L67.5172 39.5448V41.2414V42.9379L67.8827 43.2965L68.2483 43.6552H68.9862H69.7241L70.6 42.7586L71.4689 41.8621H73.3379H75.2069L76.2 40.869L77.1931 39.8759L77.062 39.6965C76.9862 39.6 76.9172 39.5172 76.8965 39.5172C76.8758 39.5172 76.4758 39.9034 76 40.3793L75.1379 41.2414H72.8965H70.6483L70.3862 41.5103C70.1586 41.7448 70.131 41.8 70.1724 42.0207C70.2276 42.3172 70.0689 42.6965 69.8069 42.869C69.5724 43.0207 69.1172 43.0207 68.8827 42.869C68.6483 42.7172 68.4689 42.2759 68.531 42C68.5931 41.6896 68.9241 41.3862 69.262 41.331C69.4896 41.2965 69.6414 41.2 69.9724 40.8828L70.3931 40.4828H72.5931H74.7931L75.6 39.6759L76.4069 38.869L76.262 38.669L76.1172 38.469L75.3517 39.2345L74.5862 40H72.0069C69.4827 40 69.4207 40 69.1241 39.8483C68.5724 39.5724 68.3862 39.1379 68.6207 38.6552C68.8276 38.2276 69.2551 38.0828 69.7172 38.2759C69.9655 38.3793 70.1103 38.5862 70.1724 38.9241L70.2207 39.1724H72.2689H74.3103L74.9586 38.5241C75.6138 37.8621 75.6276 37.8414 75.3931 37.5655C75.2965 37.4552 75.2414 37.4897 74.6207 38.1034L73.9517 38.7586H72.4414H70.931L69.7931 37.6207L68.6552 36.4828H66.4138H64.1655L63.8276 36.8276L63.4896 37.1724H62.3793H61.2689L60.8758 36.7724L60.4827 36.3724V35.1724V33.9655L61.1241 33.3241L61.7724 32.6828L61.6345 32.4069C61.5172 32.1655 61.5103 32.0896 61.5793 31.8621C61.8276 31.0414 62.931 31.0345 63.1793 31.8552C63.331 32.3586 62.9034 32.8965 62.3448 32.8965C62.131 32.8965 62.0276 32.9724 61.4965 33.5034L60.8965 34.1034V35.1724V36.2345L61.1862 36.531L61.4758 36.8276H62.3793H63.2827L63.6552 36.4483L64.0276 36.069H66.4138H68.7931L69.931 37.2069L71.0689 38.3448H72.4482H73.8276L74.4414 37.731L75.0483 37.1241L74.8758 36.931L74.7103 36.731L74.131 37.331L73.5586 37.931H72.4551H71.3517L70.1379 36.7241L68.9241 35.5172H66.0207H63.1172L62.9793 35.7517C62.6069 36.3793 61.6207 36.1586 61.4758 35.4138C61.3724 34.8552 61.9862 34.3103 62.5172 34.4828C62.7655 34.5655 63.1034 34.9034 63.1034 35.0759C63.1034 35.1586 63.5586 35.1724 66.1241 35.1724H69.1379L70.3103 36.3448L71.4827 37.5172H72.4482H73.4138L73.9517 36.9793C74.4482 36.4828 74.4758 36.4345 74.3862 36.3103C74.2896 36.1793 74.262 36.1931 73.7448 36.7034L73.2069 37.2414H72.4482H71.6896L71.1172 36.669L70.5517 36.1034V35.3034V34.5103L70.2207 34.1862L69.8896 33.8621H68.6896H67.4827L66.8827 33.2621C66.2896 32.669 66.2827 32.669 66.0758 32.7586C65.662 32.931 65.2069 32.7517 64.9931 32.331C64.8689 32.0896 64.8689 31.9034 65.0069 31.6138C65.1448 31.3241 65.4138 31.1724 65.8 31.1724C66.0345 31.1724 66.1241 31.2138 66.3241 31.4138C66.5379 31.6276 66.5586 31.6828 66.5448 32L66.5241 32.3517L67.0689 32.8965L67.6207 33.4483H68.8276H70.0414L70.5034 33.9172L70.9655 34.3862V35.1793V35.9724L71.4345 36.4345L71.9034 36.8965H72.4551H73.0069L73.5103 36.3862L74.0207 35.8759L73.6827 35.4414L73.3448 35.0138L73.3103 35.3172C73.2551 35.7241 73.1517 35.8896 72.8689 36.0276C72.5793 36.1655 72.4758 36.1655 72.1724 36.0414C71.8965 35.9241 71.6552 35.5724 71.6552 35.2896C71.6552 34.7586 72.1931 34.3379 72.6896 34.4828C72.8069 34.5172 72.8965 34.5241 72.8965 34.5034C72.8965 34.4897 72.7862 34.331 72.6483 34.1655C72.4138 33.8759 72.3793 33.8621 72.0414 33.8621H71.6896L70.862 33.0345C70.4069 32.5793 70 32.2069 69.9517 32.2069C69.9034 32.2069 69.8207 32.2965 69.7586 32.4138C69.4758 32.9586 68.5931 32.9586 68.3103 32.4138C68.1379 32.0759 68.1793 31.7517 68.4345 31.4827C68.8207 31.0552 69.4621 31.1034 69.7517 31.5862C69.8276 31.7172 69.9241 31.7931 70.0207 31.7931C70.1241 31.7931 70.4552 32.069 71.0345 32.6552C71.7724 33.3931 72.0689 33.6345 72.0689 33.4828C72.0689 33.4621 71.7379 33.0207 71.331 32.4965C70.9172 31.9793 70.3724 31.2621 70.1103 30.9103L69.6414 30.2759H66.1793H62.7241L61 28.5517L59.2758 26.8276H58.7241H58.1724L56.6414 28.3586L55.1034 29.8965V31.7379V33.5862H55.7586H56.4138V35.4138V37.2345L55.7793 37.2552L55.1379 37.2759L55.1172 39.4345C55.1103 40.6276 55.1241 41.5862 55.1517 41.5724C55.6552 41.3172 55.7586 41.2965 56.0345 41.3862C56.2 41.4483 56.3655 41.5724 56.462 41.7172C57.0207 42.5517 55.862 43.4552 55.1724 42.7241C55.0345 42.5724 54.9517 42.5517 54.5724 42.5517H54.1379V39.8965V37.2414H52.862H51.5862V40.3241V43.4138L52.331 44.1862L53.0758 44.9655H56.2138H59.3517L59.8138 45.4345L60.2758 45.9034V49.331V52.7586H59.7931H59.3034L59.3241 53.3931L59.3448 54.0345L60.1517 54.5931L60.9655 55.1586L61.2414 55.0207C62.1241 54.5793 62.9448 55.7103 62.3034 56.4828C61.9379 56.9103 61.2621 56.8897 60.9172 56.4345C60.7655 56.2345 60.731 56.1241 60.731 55.8207L60.7379 55.4552L59.8552 54.8552L58.9655 54.2483V53.5034V52.7586H58.4827H58L57.9862 51.1241L57.9655 49.4897L57.2414 49.2965L56.5172 49.1034L55.8138 49.8069L55.1034 50.5172V54.6896V58.8621L54.1034 59.8621L53.1034 60.8621V61.7379V62.6207H52.4827H51.862V61.4621V60.3103L52.4483 59.7241C52.7724 59.4 53.0345 59.1241 53.0345 59.1034C53.0345 59.0828 52.7931 59.069 52.5034 59.069H51.9655L51.9448 57.3724L51.931 55.6759L51.4758 55.5517L51.0207 55.4276L50.0965 56.3517L49.1724 57.2759V59.3793V61.4896L48.7724 61.8828L48.3724 62.2759H35.1862H22V59.0276V55.7724L21.2965 55.0621L20.5931 54.3448H15.7793H10.9655V50.8276V47.3103H11.1448H11.3241L11.2897 46.6C11.269 46.2138 11.2276 45.7931 11.2069 45.669C11.1379 45.3448 11.331 44.869 11.6414 44.6345C11.9793 44.3793 12.6069 44.3655 12.9586 44.6138C13.3517 44.8965 13.469 45.2759 13.5034 46.3586L13.531 47.3103H13.8C14.0552 47.3103 14.0621 47.3172 14.0965 47.6C14.1172 47.7655 14.1448 48.8069 14.1655 49.9172C14.1793 51.0345 14.2138 51.9586 14.2414 51.9862C14.2621 52.0069 14.8414 51.469 15.5172 50.7931L16.7586 49.5517V43.5862V37.6207L17.7931 36.5862L18.8276 35.5517V34.9517V34.3448H16.931H15.0345V33.7241V33.1034H13.5172H12.0069L11.7655 32.8896C11.469 32.6345 11.3931 32.331 11.5448 31.9793C11.7379 31.5103 11.8965 31.469 13.2897 31.5034L14.5172 31.531L14.8965 31.1448L15.269 30.7586H22.6965H30.1241L30.2 30.5448C30.2414 30.4207 30.2759 30.2827 30.2759 30.2345C30.2759 30.1172 29.3241 29.5793 29.0483 29.5448C28.4138 29.4621 28.0896 28.8276 28.4138 28.2965C28.6345 27.9241 28.8483 27.8621 29.8414 27.8621H30.7241L31.4 28.5379L32.069 29.2069V29.9517V30.6896H32.4483H32.8276V32.5862V34.4828H30.9586C29.931 34.4828 29.1034 34.5034 29.1172 34.531C29.131 34.5655 29.1862 34.669 29.2345 34.7724L29.331 34.9655H31.4965H33.6552V32.5724V30.1724L34.2276 30.7448L34.7931 31.3103H39.4965H44.1931L44.931 30.8759L45.6621 30.4483L43.4207 30.4276L41.1724 30.4138V29.9655V29.5172H40.0345H38.8965V28.7241V27.931H39.7724H40.6552L41.1517 27.4345L41.6552 26.9379V26V25.069L42.6896 24.0345L43.7241 23V22.2414V21.4827L42.5862 20.3448L41.4483 19.2069V9.71723V0.227577L41.131 0.179298C40.9517 0.158615 40.6552 0.137924 40.4758 0.137924H40.1379V4.14482V8.15862L40.5517 8.87585L40.9655 9.59999V13.469V17.3448L40.4 17.9103L39.8414 18.4759L39.8345 18.8552C39.8276 19.2896 39.6552 19.531 39.2621 19.6552C38.9379 19.7655 38.6621 19.6827 38.4138 19.4069C38.0138 18.9448 38.2069 18.2621 38.8 18.069C38.931 18.0207 39.0621 18.0069 39.0896 18.0276C39.1103 18.0552 39.3724 17.8345 39.6689 17.5379L40.2069 17V13.4069V9.80688L39.7931 9.08965L39.3793 8.3793V4.23447V0.0896454L38.9862 0.0482635C38.7724 0.0275803 38.5724 0.0206833 38.5379 0.0413666C38.5103 0.0620575 38.4827 2.26896 38.4827 4.94482V9.81378L38.7586 10.3103C38.9655 10.6896 39.0345 10.8828 39.0345 11.131C39.0345 11.3724 39.0621 11.4483 39.1379 11.4483C39.3379 11.4483 39.6552 11.6552 39.7586 11.8621C40.1448 12.6069 39.3655 13.3862 38.6207 13C38.1172 12.7379 38.0758 11.8414 38.5517 11.5862C38.7931 11.4552 38.7379 11.0138 38.4138 10.4759L38.1379 10.0138V5.00689V-7.62939e-06H37.7931H37.4483V6.46896V12.9379L38.469 13.9517C39.0345 14.5103 39.531 14.9655 39.5724 14.9655C39.7034 14.9655 39.931 15.3931 39.931 15.6414C39.931 16.2896 39.1931 16.6965 38.6621 16.3517C38.4 16.1793 38.2827 15.9586 38.2758 15.6552C38.2758 15.3655 38.4827 14.9931 38.6896 14.931C38.8276 14.8896 38.7448 14.7862 37.9379 13.9724L37.0345 13.0552V6.53103V-7.62939e-06H36.6552H36.2758V5.01379V10.0276L35.9862 10.3241L35.6965 10.6207L35.7931 10.9793C35.8483 11.2207 35.9586 11.4069 36.1103 11.5517C36.6965 12.1103 36.3448 12.9655 35.531 12.9655C35.2758 12.9655 35.1862 12.9241 34.9931 12.731C34.8 12.5379 34.7586 12.4414 34.7586 12.2138C34.7586 11.8207 34.9103 11.5586 35.2069 11.4138C35.4138 11.3172 35.4552 11.269 35.4207 11.1517C35.3931 11.069 35.3586 10.8759 35.3379 10.7241C35.3034 10.469 35.3241 10.4276 35.5793 10.1724L35.8621 9.90344V4.95171V-7.62939e-06H35.5172H35.1724V5.09654ZM29.4276 21.4759C29.7241 21.8 29.7448 22.2276 29.4759 22.5448C28.9448 23.1724 27.931 22.7586 28.0207 21.9448C28.1034 21.2 28.931 20.931 29.4276 21.4759ZM39.4552 21.331C39.8827 21.6207 39.9793 22.0759 39.7034 22.4896C39.4 22.9448 38.7448 22.9724 38.3862 22.5448C38.0552 22.1586 38.1931 21.5034 38.6483 21.2828C38.9517 21.131 39.1862 21.1448 39.4552 21.331ZM15.8276 28.1517C16.4207 28.6965 16.0621 29.5862 15.2552 29.5862C14.4621 29.5862 14.1586 28.531 14.8207 28.0896C15.1724 27.8552 15.531 27.8759 15.8276 28.1517ZM19.2759 28.1379C19.8345 28.6621 19.4828 29.5862 18.7241 29.5862C18.1724 29.5862 17.7586 29.0345 17.931 28.5241C18.0069 28.2965 18.2138 28.0552 18.4138 27.9793C18.6276 27.8896 19.1103 27.9862 19.2759 28.1379ZM22.3103 28C22.6414 28.1241 22.8276 28.4 22.8276 28.7586C22.8276 29.5241 22 29.8965 21.4483 29.3793C21.0483 29.0069 21.1241 28.3586 21.6 28.069C21.8552 27.9172 22.0414 27.8965 22.3103 28ZM26.0414 28.1448C26.5931 28.6621 26.2276 29.5862 25.4759 29.5862C24.931 29.5862 24.5172 29.0345 24.6896 28.5241C24.7655 28.2965 24.9724 28.0552 25.1724 27.9793C25.3862 27.8896 25.869 27.9862 26.0414 28.1448ZM9.57931 28.3172C9.7862 28.5448 9.80689 28.5931 9.77931 28.9034C9.70344 29.6965 8.82069 29.9724 8.31034 29.3724C7.97931 28.9724 8.15862 28.2759 8.64827 28.0621C8.93793 27.9379 9.33103 28.0414 9.57931 28.3172ZM59.6621 31.3586C60.1034 31.6207 60.1793 32.2552 59.8207 32.6276C59.4827 32.9793 58.9655 32.9793 58.6138 32.6207C58.4414 32.4552 58.4138 32.3655 58.4138 32.069C58.4138 31.7517 58.4414 31.6828 58.6483 31.4759C58.8414 31.2827 58.9379 31.2414 59.1724 31.2414C59.331 31.2414 59.5517 31.2965 59.6621 31.3586ZM9.56551 31.6276C10.0069 31.9034 10.0552 32.5586 9.66207 32.9103C9.26896 33.2621 8.88965 33.2483 8.50345 32.8621C8.31034 32.669 8.27586 32.5862 8.27586 32.3241C8.27586 31.6483 8.9862 31.269 9.56551 31.6276ZM59.6069 34.6C59.8138 34.7034 60 35.0552 60 35.3241C60 35.5655 59.7517 35.9241 59.4896 36.0414C59.0414 36.2621 58.5517 36.0414 58.3862 35.5586C58.2276 35.0965 58.4689 34.6207 58.9241 34.4897C59.1586 34.4207 59.3103 34.4483 59.6069 34.6ZM12.6621 34.6828C13.2069 34.931 13.3103 35.7034 12.8552 36.0621C12.1448 36.6207 11.1724 35.8759 11.5586 35.069C11.6414 34.8896 11.7655 34.7724 11.9586 34.6828C12.3034 34.5241 12.3172 34.5241 12.6621 34.6828ZM9.51724 34.7241C9.62758 34.7862 9.76551 34.9241 9.82758 35.0345C10.1241 35.6138 9.73793 36.2759 9.10345 36.2759C8.46896 36.2759 8.08276 35.6138 8.37931 35.0345C8.57931 34.6552 9.10345 34.5103 9.51724 34.7241ZM12.7724 38.3379C13.0483 38.4897 13.2138 38.9448 13.1034 39.269C12.9586 39.7172 12.4897 39.9448 12.0345 39.7931C11.3241 39.5586 11.2759 38.5793 11.9586 38.269C12.2621 38.1379 12.4552 38.1517 12.7724 38.3379ZM9.51724 38.3103C9.62758 38.3724 9.76551 38.5103 9.82758 38.6207C10.1241 39.2 9.73793 39.8621 9.10345 39.8621C8.46896 39.8621 8.08276 39.2 8.37931 38.6207C8.57931 38.2414 9.10345 38.0965 9.51724 38.3103ZM59.6552 41.5103C59.7517 41.5793 59.8689 41.7586 59.9241 41.9103C60.1241 42.469 59.7379 42.9862 59.1379 42.9862C58.8758 42.9862 58.7793 42.9517 58.6138 42.7862C58.3379 42.5103 58.2689 42.2276 58.3862 41.8965C58.5724 41.3517 59.1862 41.1655 59.6552 41.5103ZM63.0827 41.4828C63.1793 41.5448 63.2965 41.7103 63.3586 41.8414C63.7034 42.6828 62.6483 43.3931 62.0069 42.7517C61.2896 42.0345 62.2276 40.9241 63.0827 41.4828ZM6.11724 44.931C6.34482 45.0828 6.50345 45.4828 6.44827 45.7655C6.42758 45.8896 6.31724 46.0828 6.20689 46.1931C5.86207 46.5448 5.37931 46.5379 5.03448 46.1931C4.31724 45.4828 5.26896 44.3724 6.11724 44.931ZM12.6897 58.0828C13.0414 58.269 13.2414 58.5931 13.2414 58.9862C13.2414 59.931 12.0897 60.3379 11.4552 59.6207C11.2759 59.4138 11.2414 59.3172 11.2414 59.0276C11.2414 58.6276 11.3724 58.3379 11.6345 58.1517C11.9931 57.8965 12.2828 57.8759 12.6897 58.0828ZM17.0345 58.0896C17.8896 58.5448 17.6965 59.8207 16.7448 59.9724C16.4 60.0345 16.1862 59.9655 15.8965 59.7172C15.1931 59.0965 15.6276 57.9793 16.5931 57.9379C16.669 57.931 16.869 58 17.0345 58.0896ZM17.0896 61.5172C17.7172 61.8965 17.7517 62.7034 17.1724 63.2C17 63.3448 16.8828 63.3793 16.6 63.3793C16.1379 63.3793 15.8276 63.1931 15.6552 62.8069C15.4896 62.4483 15.4896 62.3517 15.6276 62C15.8552 61.4345 16.5655 61.2 17.0896 61.5172ZM56.331 68.1379C56.5655 68.2828 56.8276 68.7379 56.8276 69C56.8276 69.2621 56.5655 69.7172 56.331 69.8621C55.8345 70.1655 55.1379 69.9655 54.8827 69.4483C54.4276 68.5517 55.4689 67.6138 56.331 68.1379ZM39.5172 71.2276C40.2552 71.5931 40.2552 72.6552 39.5172 73.0414C38.8552 73.3931 38.069 72.9034 38.069 72.1379C38.069 71.5793 38.531 71.1034 39.069 71.1034C39.1862 71.1034 39.3862 71.1586 39.5172 71.2276ZM16.2759 71.3724C17.0138 71.7586 17.0138 72.8207 16.2759 73.1862C15.6 73.531 14.8276 73.0414 14.8276 72.2759C14.8276 71.731 15.2965 71.2414 15.8276 71.2414C15.9448 71.2414 16.1448 71.2965 16.2759 71.3724ZM19.4965 71.3724C20.2207 71.7034 20.2483 72.7517 19.5448 73.1517C19.1172 73.4 18.7034 73.3379 18.3241 72.9793C17.8138 72.4896 18.0138 71.5862 18.6896 71.3172C18.9517 71.2138 19.1793 71.2276 19.4965 71.3724ZM22.9586 71.4276C23.2827 71.6759 23.4138 71.9172 23.4138 72.2759C23.4138 72.7931 23.0345 73.2207 22.5034 73.2896C21.9517 73.3655 21.3793 72.8414 21.3793 72.269C21.3793 71.5034 22.3586 70.9862 22.9586 71.4276ZM26 71.3724C26.7379 71.7586 26.7379 72.7931 26 73.1793C25.3379 73.5379 24.5517 73.0483 24.5517 72.2759C24.5517 71.5034 25.3379 71.0138 26 71.3724ZM35.931 71.3655C36.2758 71.5379 36.4827 71.8828 36.4827 72.2759C36.4827 72.669 36.2758 73.0138 35.931 73.1862C35.2552 73.531 34.4827 73.0414 34.4827 72.2759C34.4827 71.5172 35.2621 71.0276 35.931 71.3655ZM12.7586 74.7724C13.8483 75.3379 13.1517 77.0138 11.9862 76.6276C10.8965 76.269 11.1586 74.6759 12.3103 74.6276C12.3931 74.6207 12.5931 74.6896 12.7586 74.7724ZM16.2552 74.7586C17.0138 75.0965 17.0276 76.1931 16.2759 76.5655C15.6069 76.9034 14.8276 76.4207 14.8276 75.6759C14.8276 75.3103 14.9655 75.0276 15.2207 74.8414C15.5724 74.5931 15.8552 74.5724 16.2552 74.7586ZM19.4965 74.7655C20.5448 75.2759 20.0069 76.8759 18.8621 76.6621C18.0759 76.5103 17.7586 75.4896 18.331 74.9448C18.6828 74.6069 19.0552 74.5517 19.4965 74.7655ZM22.9586 74.8069C23.4207 75.1586 23.5517 75.6138 23.3172 76.0896C22.9517 76.8414 21.9448 76.8828 21.5379 76.1655C21.3448 75.8276 21.3379 75.5724 21.5241 75.2C21.7793 74.6621 22.4965 74.469 22.9586 74.8069ZM26.0483 78.0069C26.5448 78.1931 26.8276 78.731 26.6896 79.2345C26.6 79.5655 26.2345 79.9103 25.8965 79.9724C25.5586 80.0345 25.0759 79.8414 24.8827 79.5655C24.6621 79.2621 24.6621 78.6759 24.8759 78.3724C25.1448 77.9931 25.6207 77.8414 26.0483 78.0069Z" fill="#5B9AFF"/>
</svg>
